<svg width="1512" height="679" viewBox="0 0 1512 679" fill="none" xmlns="http://www.w3.org/2000/svg">
<g filter="url(#filter0_d_92_4187)">
<rect y="12" width="1512" height="647" fill="#DA0067"/>
</g>
<g opacity="0.5">
<path d="M1490.9 226.086L1498.36 239.726L1512 247.168L1498.36 254.553L1490.92 268.198L1483.47 254.558L1469.89 247.184L1483.46 239.731L1490.9 226.086Z" fill="#EFBDDB"/>
<path d="M86.8072 130.734L98.8681 152.793L120.889 164.834L98.8787 176.895L86.8388 198.96L74.7779 176.901L52.7092 164.86L74.7673 152.804L86.8072 130.734Z" fill="#EFBDDB"/>
<path d="M577.098 508L589.159 530.059L611.18 542.099L589.169 554.161L577.13 576.225L565.069 554.166L543 542.126L565.058 530.07L577.098 508Z" fill="#EFBDDB"/>
<path fill-rule="evenodd" clip-rule="evenodd" d="M658.739 157.586L658.18 159.761C657.625 161.915 658.919 164.132 661.056 164.681L668.05 166.486C670.188 167.04 672.389 165.726 672.948 163.572L673.481 161.503C677.984 161.978 681.927 161.529 685.3 160.162C690.177 158.188 693.317 154.493 694.716 149.077C695.381 146.501 695.481 144.189 695.022 142.141C694.563 140.093 693.692 138.288 692.431 136.725C691.158 135.158 689.596 133.817 687.738 132.677C685.88 131.547 683.901 130.539 681.811 129.657L673.402 126.142C671.439 125.292 670.003 124.506 669.09 123.793C668.182 123.075 667.871 122.172 668.156 121.074C668.441 119.982 669.227 119.238 670.52 118.847C671.813 118.456 673.904 118.636 676.78 119.38C679.34 120.04 681.578 120.826 683.494 121.734C685.41 122.642 687.026 123.518 688.34 124.374C689.654 125.234 690.678 126.026 691.407 126.765C692.135 127.504 692.578 127.995 692.716 128.237C692.858 128.206 693.217 128.09 693.777 127.889C694.341 127.688 694.969 127.372 695.661 126.934C696.352 126.49 697.012 125.925 697.635 125.223C698.258 124.527 698.701 123.661 698.97 122.626C699.319 121.275 699.245 120.035 698.754 118.905C698.258 117.786 697.487 116.741 696.442 115.785C694.61 114.144 692.304 112.687 689.527 111.42C688.646 111.019 687.701 110.628 686.698 110.248L687.247 108.121C687.801 105.973 686.508 103.756 684.371 103.207L677.377 101.401C675.239 100.847 673.033 102.161 672.479 104.31L671.872 106.669C670.768 106.59 669.713 106.569 668.705 106.611C665.601 106.738 662.925 107.324 660.681 108.358C658.433 109.398 656.612 110.818 655.224 112.629C653.835 114.439 652.833 116.535 652.22 118.921C651.487 121.761 651.392 124.247 651.935 126.379C652.479 128.512 653.471 130.402 654.928 132.049C656.38 133.695 658.18 135.126 660.323 136.329C662.471 137.538 664.751 138.626 667.163 139.586L672.003 141.455C674.284 142.389 675.925 143.244 676.923 144.015C677.915 144.786 678.248 145.82 677.915 147.108C677.598 148.338 676.706 149.014 675.239 149.156C673.772 149.288 671.724 149.019 669.1 148.343C666.799 147.747 664.651 147.008 662.661 146.116C660.671 145.229 658.924 144.326 657.419 143.424C655.91 142.516 654.638 141.64 653.593 140.785C652.548 139.935 651.824 139.243 651.413 138.726L643.347 147.372C643.759 147.89 644.525 148.687 645.644 149.769C646.763 150.851 648.299 152.001 650.23 153.226C652.168 154.445 654.522 155.691 657.303 156.958C657.768 157.169 658.248 157.375 658.739 157.581V157.586Z" fill="#EFBDDB"/>
<path fill-rule="evenodd" clip-rule="evenodd" d="M1134.8 421.926L1134.67 425.056C1134.55 428.16 1136.97 430.794 1140.05 430.915L1150.11 431.311C1153.19 431.432 1155.81 428.994 1155.93 425.895L1156.05 422.918C1162.33 422.237 1167.57 420.463 1171.76 417.602C1177.84 413.475 1181.02 407.51 1181.33 399.714C1181.48 396.003 1180.93 392.82 1179.7 390.17C1178.47 387.515 1176.75 385.308 1174.56 383.551C1172.37 381.793 1169.84 380.415 1166.97 379.417C1164.11 378.425 1161.11 377.633 1158 377.047L1145.5 374.735C1142.57 374.16 1140.38 373.511 1138.93 372.803C1137.49 372.096 1136.8 370.956 1136.85 369.372C1136.92 367.794 1137.77 366.554 1139.42 365.64C1141.07 364.727 1143.97 364.353 1148.12 364.516C1151.8 364.664 1155.09 365.076 1157.97 365.746C1160.84 366.416 1163.31 367.14 1165.36 367.916C1167.4 368.697 1169.03 369.478 1170.24 370.275C1171.46 371.067 1172.2 371.605 1172.47 371.901C1172.65 371.811 1173.11 371.547 1173.81 371.114C1174.52 370.676 1175.29 370.053 1176.1 369.251C1176.92 368.443 1177.65 367.477 1178.29 366.337C1178.94 365.202 1179.29 363.888 1179.35 362.405C1179.43 360.457 1178.96 358.789 1177.96 357.395C1176.95 356.012 1175.59 354.819 1173.88 353.822C1170.9 352.122 1167.33 350.818 1163.17 349.91C1161.85 349.62 1160.45 349.367 1158.96 349.15L1159.08 346.094C1159.2 343.001 1156.79 340.361 1153.71 340.24L1143.64 339.844C1140.56 339.723 1137.95 342.161 1137.83 345.255L1137.69 348.649C1136.17 348.865 1134.72 349.15 1133.36 349.504C1129.17 350.591 1125.69 352.175 1122.94 354.249C1120.17 356.329 1118.11 358.799 1116.75 361.676C1115.4 364.553 1114.65 367.704 1114.51 371.135C1114.35 375.221 1114.95 378.636 1116.32 381.386C1117.69 384.136 1119.6 386.417 1122.07 388.233C1124.53 390.054 1127.41 391.468 1130.69 392.477C1133.97 393.49 1137.4 394.298 1140.98 394.905L1148.13 396.024C1151.51 396.626 1154 397.301 1155.59 398.061C1157.18 398.821 1157.93 400.131 1157.86 401.983C1157.79 403.752 1156.77 404.939 1154.82 405.562C1152.85 406.18 1149.98 406.417 1146.21 406.264C1142.89 406.132 1139.75 405.752 1136.77 405.124C1133.8 404.501 1131.15 403.783 1128.83 403.002C1126.51 402.21 1124.51 401.392 1122.84 400.532C1121.17 399.682 1119.97 398.953 1119.26 398.367L1110.82 412.535C1111.53 413.121 1112.81 413.981 1114.65 415.122C1116.5 416.267 1118.93 417.381 1121.93 418.479C1124.93 419.571 1128.51 420.569 1132.67 421.482C1133.37 421.635 1134.08 421.773 1134.81 421.91L1134.8 421.926Z" fill="#EFBDDB"/>
<path fill-rule="evenodd" clip-rule="evenodd" d="M942.697 262.429L942.575 265.559C942.454 268.663 944.871 271.297 947.948 271.418L958.014 271.814C961.091 271.935 963.71 269.497 963.831 266.398L963.947 263.421C970.228 262.74 975.47 260.966 979.666 258.105C985.736 253.978 988.924 248.013 989.23 240.216C989.378 236.506 988.834 233.323 987.599 230.673C986.369 228.018 984.654 225.811 982.463 224.054C980.268 222.296 977.745 220.918 974.873 219.92C972.007 218.928 969.014 218.136 965.905 217.55L953.401 215.238C950.471 214.663 948.281 214.014 946.835 213.306C945.388 212.599 944.697 211.459 944.755 209.875C944.818 208.297 945.673 207.057 947.326 206.143C948.972 205.23 951.876 204.855 956.019 205.019C959.703 205.167 962.986 205.579 965.868 206.249C968.745 206.919 971.21 207.642 973.258 208.418C975.301 209.2 976.932 209.981 978.146 210.778C979.36 211.57 980.104 212.108 980.368 212.404C980.553 212.314 981.007 212.05 981.714 211.617C982.421 211.179 983.186 210.556 984.005 209.754C984.817 208.946 985.546 207.98 986.195 206.84C986.839 205.705 987.193 204.391 987.251 202.908C987.33 200.96 986.86 199.292 985.857 197.898C984.854 196.515 983.493 195.322 981.782 194.325C978.8 192.625 975.232 191.321 971.067 190.413C969.748 190.123 968.349 189.87 966.861 189.653L966.982 186.597C967.103 183.504 964.686 180.864 961.609 180.743L951.543 180.347C948.466 180.226 945.848 182.664 945.726 185.758L945.594 189.152C944.069 189.368 942.623 189.653 941.261 190.007C937.07 191.094 933.591 192.678 930.836 194.752C928.076 196.832 926.012 199.302 924.655 202.179C923.299 205.056 922.549 208.207 922.412 211.638C922.248 215.724 922.85 219.139 924.222 221.889C925.589 224.639 927.506 226.92 929.971 228.736C932.435 230.557 935.312 231.971 938.59 232.98C941.873 233.993 945.304 234.801 948.877 235.408L956.03 236.527C959.413 237.128 961.904 237.804 963.493 238.564C965.077 239.324 965.831 240.633 965.758 242.486C965.689 244.255 964.675 245.442 962.717 246.065C960.754 246.683 957.882 246.92 954.108 246.767C950.793 246.635 947.648 246.255 944.671 245.627C941.699 245.004 939.049 244.286 936.732 243.505C934.41 242.713 932.409 241.895 930.741 241.035C929.068 240.185 927.875 239.456 927.162 238.87L918.717 253.038C919.43 253.624 920.712 254.484 922.554 255.625C924.402 256.77 926.83 257.884 929.828 258.982C932.826 260.074 936.41 261.072 940.569 261.985C941.266 262.138 941.979 262.275 942.712 262.413L942.697 262.429Z" fill="#EFBDDB"/>
<path fill-rule="evenodd" clip-rule="evenodd" d="M1290.63 167.578L1290.9 170.365C1291.18 173.126 1293.64 175.158 1296.38 174.884L1305.33 173.997C1308.06 173.728 1310.08 171.247 1309.8 168.491L1309.54 165.847C1315.01 164.469 1319.43 162.257 1322.79 159.212C1327.65 154.815 1329.73 149.145 1329.05 142.215C1328.72 138.916 1327.85 136.166 1326.43 133.975C1325.02 131.779 1323.23 130.037 1321.07 128.754C1318.91 127.466 1316.51 126.564 1313.85 126.031C1311.19 125.503 1308.45 125.176 1305.63 125.038L1294.29 124.537C1291.63 124.389 1289.61 124.083 1288.24 123.64C1286.87 123.191 1286.11 122.267 1285.98 120.863C1285.84 119.459 1286.44 118.255 1287.79 117.247C1289.14 116.239 1291.66 115.548 1295.34 115.183C1298.61 114.856 1301.57 114.819 1304.2 115.057C1306.83 115.294 1309.1 115.632 1311 116.07C1312.91 116.508 1314.44 116.999 1315.62 117.553C1316.79 118.102 1317.51 118.493 1317.78 118.715C1317.93 118.614 1318.3 118.324 1318.87 117.854C1319.44 117.379 1320.04 116.735 1320.67 115.928C1321.29 115.115 1321.81 114.17 1322.24 113.082C1322.68 112 1322.83 110.797 1322.69 109.477C1322.52 107.746 1321.91 106.326 1320.85 105.217C1319.79 104.119 1318.43 103.233 1316.8 102.557C1313.96 101.422 1310.64 100.71 1306.85 100.419C1305.64 100.329 1304.38 100.277 1303.04 100.261L1302.77 97.5424C1302.49 94.787 1300.03 92.7547 1297.3 93.0239L1288.35 93.9107C1285.61 94.1799 1283.6 96.6609 1283.87 99.4163L1284.17 102.436C1282.84 102.816 1281.6 103.243 1280.44 103.729C1276.87 105.207 1273.99 107.038 1271.81 109.208C1269.62 111.388 1268.1 113.827 1267.26 116.54C1266.41 119.248 1266.14 122.13 1266.44 125.181C1266.8 128.818 1267.75 131.763 1269.3 134.022C1270.84 136.287 1272.82 138.071 1275.23 139.37C1277.63 140.673 1280.35 141.571 1283.37 142.062C1286.4 142.553 1289.54 142.848 1292.77 142.943L1299.23 143.054C1302.3 143.17 1304.58 143.46 1306.08 143.936C1307.58 144.411 1308.4 145.477 1308.57 147.129C1308.73 148.702 1307.97 149.879 1306.32 150.666C1304.66 151.452 1302.15 152.017 1298.79 152.35C1295.84 152.64 1293.01 152.693 1290.31 152.503C1287.6 152.318 1285.17 152.012 1283.02 151.605C1280.87 151.188 1279 150.713 1277.42 150.159C1275.83 149.61 1274.69 149.119 1273.99 148.686L1268.26 162.257C1268.96 162.685 1270.2 163.292 1271.97 164.073C1273.75 164.86 1276.03 165.546 1278.82 166.148C1281.61 166.744 1284.9 167.188 1288.69 167.483C1289.32 167.531 1289.97 167.568 1290.64 167.594L1290.63 167.578Z" fill="#EFBDDB"/>
<path fill-rule="evenodd" clip-rule="evenodd" d="M121.309 548.578L121.583 551.365C121.857 554.126 124.323 556.158 127.057 555.884L136.009 554.997C138.743 554.728 140.759 552.247 140.485 549.491L140.221 546.847C145.694 545.469 150.112 543.257 153.469 540.212C158.331 535.815 160.416 530.145 159.729 523.215C159.402 519.916 158.531 517.166 157.111 514.975C155.697 512.779 153.907 511.037 151.754 509.754C149.595 508.466 147.193 507.564 144.533 507.031C141.873 506.503 139.128 506.176 136.31 506.038L124.966 505.537C122.306 505.389 120.29 505.083 118.918 504.64C117.55 504.191 116.796 503.267 116.658 501.863C116.521 500.459 117.123 499.255 118.474 498.247C119.82 497.239 122.338 496.548 126.022 496.183C129.295 495.856 132.256 495.819 134.884 496.057C137.513 496.294 139.777 496.632 141.683 497.07C143.588 497.508 145.124 497.999 146.296 498.553C147.468 499.102 148.191 499.493 148.46 499.715C148.613 499.614 148.977 499.324 149.553 498.854C150.123 498.379 150.725 497.735 151.347 496.928C151.97 496.115 152.493 495.17 152.926 494.082C153.359 493 153.506 491.797 153.374 490.477C153.2 488.746 152.588 487.326 151.527 486.217C150.471 485.119 149.115 484.233 147.484 483.557C144.639 482.422 141.319 481.71 137.529 481.419C136.325 481.329 135.059 481.277 133.718 481.261L133.449 478.542C133.174 475.787 130.715 473.755 127.98 474.024L119.028 474.911C116.294 475.18 114.278 477.661 114.547 480.416L114.848 483.436C113.523 483.816 112.283 484.243 111.121 484.729C107.548 486.207 104.666 488.038 102.486 490.208C100.301 492.388 98.7808 494.827 97.9363 497.54C97.0917 500.248 96.8172 503.13 97.1181 506.181C97.477 509.818 98.4323 512.763 99.9789 515.022C101.525 517.287 103.5 519.071 105.906 520.37C108.308 521.673 111.026 522.571 114.051 523.062C117.081 523.553 120.216 523.848 123.446 523.943L129.912 524.054C132.979 524.17 135.264 524.46 136.763 524.936C138.257 525.411 139.086 526.477 139.25 528.129C139.408 529.702 138.653 530.879 137.001 531.666C135.338 532.452 132.831 533.017 129.474 533.35C126.524 533.64 123.694 533.693 120.987 533.503C118.279 533.318 115.851 533.012 113.703 532.605C111.549 532.188 109.681 531.713 108.097 531.159C106.514 530.61 105.368 530.119 104.666 529.686L98.9391 543.257C99.6411 543.685 100.882 544.292 102.655 545.073C104.429 545.86 106.714 546.546 109.501 547.148C112.288 547.744 115.576 548.188 119.371 548.483C120.005 548.531 120.654 548.568 121.319 548.594L121.309 548.578Z" fill="#EFBDDB"/>
<path fill-rule="evenodd" clip-rule="evenodd" d="M39.3086 306.578L39.5831 309.365C39.8576 312.126 42.3225 314.158 45.0567 313.884L54.0087 312.997C56.7429 312.728 58.7592 310.247 58.4847 307.491L58.2208 304.847C63.6944 303.469 68.1124 301.257 71.4694 298.212C76.3307 293.815 78.4156 288.145 77.7295 281.215C77.4022 277.916 76.5313 275.166 75.1114 272.975C73.6969 270.779 71.9075 269.037 69.7539 267.754C67.5951 266.466 65.1935 265.564 62.5332 265.031C59.8729 264.503 57.1282 264.176 54.3096 264.038L42.9665 263.537C40.3062 263.389 38.2899 263.083 36.9176 262.64C35.5505 262.191 34.7957 261.267 34.6584 259.863C34.5212 258.459 35.1229 257.255 36.4742 256.247C37.8201 255.239 40.3379 254.548 44.0221 254.183C47.2947 253.856 50.2559 253.819 52.8845 254.057C55.5131 254.294 57.7775 254.632 59.6829 255.07C61.5884 255.508 63.1244 255.999 64.2962 256.553C65.468 257.102 66.1911 257.493 66.4603 257.715C66.6133 257.614 66.9776 257.324 67.5529 256.854C68.1229 256.379 68.7247 255.735 69.3475 254.928C69.9704 254.115 70.4929 253.17 70.9257 252.082C71.3586 251 71.5063 249.797 71.3744 248.477C71.2002 246.746 70.5879 245.326 69.527 244.217C68.4713 243.119 67.1148 242.233 65.4838 241.557C62.6388 240.422 59.3187 239.71 55.5289 239.419C54.3254 239.329 53.0586 239.277 51.7179 239.261L51.4487 236.542C51.1743 233.787 48.7146 231.755 45.9804 232.024L37.0284 232.911C34.2942 233.18 32.2779 235.661 32.5471 238.416L32.848 241.436C31.5231 241.816 30.2827 242.243 29.1215 242.729C25.5481 244.207 22.6661 246.038 20.4862 248.208C18.3009 250.388 16.7808 252.827 15.9363 255.54C15.0917 258.248 14.8172 261.13 15.1181 264.181C15.477 267.818 16.4324 270.763 17.979 273.022C19.5255 275.287 21.4996 277.071 23.9065 278.37C26.3081 279.673 29.0265 280.571 32.0509 281.062C35.0807 281.553 38.216 281.848 41.4463 281.943L47.9123 282.054C50.979 282.17 53.2645 282.46 54.7635 282.936C56.2573 283.411 57.086 284.477 57.2496 286.129C57.408 287.702 56.6532 288.879 55.001 289.666C53.3384 290.452 50.8312 291.017 47.4742 291.35C44.5236 291.64 41.6944 291.693 38.9866 291.503C36.2789 291.318 33.8509 291.012 31.7026 290.605C29.549 290.188 27.6805 289.713 26.097 289.159C24.5135 288.61 23.3681 288.119 22.6661 287.686L16.9391 301.257C17.6411 301.685 18.8816 302.292 20.6551 303.073C22.4286 303.86 24.7141 304.546 27.501 305.148C30.288 305.744 33.5764 306.188 37.3715 306.483C38.0049 306.531 38.6541 306.568 39.3192 306.594L39.3086 306.578Z" fill="#EFBDDB"/>
<path fill-rule="evenodd" clip-rule="evenodd" d="M781.309 548.578L781.583 551.365C781.858 554.126 784.323 556.158 787.057 555.884L796.009 554.997C798.743 554.728 800.759 552.247 800.485 549.491L800.221 546.847C805.694 545.469 810.112 543.257 813.469 540.212C818.331 535.815 820.416 530.145 819.729 523.215C819.402 519.916 818.531 517.166 817.111 514.975C815.697 512.779 813.907 511.037 811.754 509.754C809.595 508.466 807.193 507.564 804.533 507.031C801.873 506.503 799.128 506.176 796.31 506.038L784.966 505.537C782.306 505.389 780.29 505.083 778.918 504.64C777.55 504.191 776.796 503.267 776.658 501.863C776.521 500.459 777.123 499.255 778.474 498.247C779.82 497.239 782.338 496.548 786.022 496.183C789.295 495.856 792.256 495.819 794.884 496.057C797.513 496.294 799.777 496.632 801.683 497.07C803.588 497.508 805.124 497.999 806.296 498.553C807.468 499.102 808.191 499.493 808.46 499.715C808.613 499.614 808.978 499.324 809.553 498.854C810.123 498.379 810.725 497.735 811.348 496.928C811.97 496.115 812.493 495.17 812.926 494.082C813.359 493 813.506 491.797 813.374 490.477C813.2 488.746 812.588 487.326 811.527 486.217C810.471 485.119 809.115 484.233 807.484 483.557C804.639 482.422 801.319 481.71 797.529 481.419C796.325 481.329 795.059 481.277 793.718 481.261L793.449 478.542C793.174 475.787 790.715 473.755 787.98 474.024L779.028 474.911C776.294 475.18 774.278 477.661 774.547 480.416L774.848 483.436C773.523 483.816 772.283 484.243 771.121 484.729C767.548 486.207 764.666 488.038 762.486 490.208C760.301 492.388 758.781 494.827 757.936 497.54C757.092 500.248 756.817 503.13 757.118 506.181C757.477 509.818 758.432 512.763 759.979 515.022C761.526 517.287 763.5 519.071 765.906 520.37C768.308 521.673 771.026 522.571 774.051 523.062C777.081 523.553 780.216 523.848 783.446 523.943L789.912 524.054C792.979 524.17 795.264 524.46 796.764 524.936C798.257 525.411 799.086 526.477 799.25 528.129C799.408 529.702 798.653 530.879 797.001 531.666C795.338 532.452 792.831 533.017 789.474 533.35C786.524 533.64 783.694 533.693 780.987 533.503C778.279 533.318 775.851 533.012 773.703 532.605C771.549 532.188 769.681 531.713 768.097 531.159C766.514 530.61 765.368 530.119 764.666 529.686L758.939 543.257C759.641 543.685 760.882 544.292 762.655 545.073C764.429 545.86 766.714 546.546 769.501 547.148C772.288 547.744 775.576 548.188 779.371 548.483C780.005 548.531 780.654 548.568 781.319 548.594L781.309 548.578Z" fill="#EFBDDB"/>
<path d="M402.693 112.465L410.299 126.379L424.155 133.975L410.305 141.576L402.709 155.432L395.108 141.581L381.184 133.991L395.103 126.384L402.693 112.465Z" fill="#EFBDDB"/>
<path d="M1398.51 549L1406.12 562.914L1419.97 570.51L1406.12 578.111L1398.52 591.967L1390.92 578.116L1377 570.526L1390.92 562.92L1398.51 549Z" fill="#EFBDDB"/>
<path d="M787.984 189L805.657 220.961L838 238.447L805.673 256.023L788.021 288L770.349 256.039L738 238.484L770.333 220.977L787.984 189Z" fill="#EFBDDB"/>
<path d="M334.474 496L351.966 527.935L383.979 545.407L351.982 562.969L334.511 594.92L317.018 562.985L285 545.444L317.002 527.951L334.474 496Z" fill="#EFBDDB"/>
<path d="M650.172 350.85L657.625 364.489L671.27 371.932L657.631 379.317L650.188 392.967L642.735 379.327L629.154 371.948L642.73 364.495L650.172 350.85Z" fill="#EFBDDB"/>
<path fill-rule="evenodd" clip-rule="evenodd" d="M1389.53 405.54L1389.81 408.327C1390.08 411.088 1392.55 413.12 1395.28 412.846L1404.23 411.959C1406.97 411.69 1408.98 409.209 1408.71 406.453L1408.44 403.809C1413.92 402.431 1418.34 400.219 1421.69 397.174C1426.55 392.777 1428.64 387.107 1427.95 380.177C1427.63 376.878 1426.76 374.127 1425.34 371.937C1423.92 369.741 1422.13 367.999 1419.98 366.716C1417.82 365.428 1415.42 364.526 1412.76 363.993C1410.1 363.465 1407.35 363.138 1404.53 363L1393.19 362.499C1390.53 362.351 1388.51 362.045 1387.14 361.601C1385.77 361.153 1385.02 360.229 1384.88 358.825C1384.75 357.421 1385.35 356.217 1386.7 355.209C1388.04 354.201 1390.56 353.509 1394.25 353.145C1397.52 352.818 1400.48 352.781 1403.11 353.019C1405.74 353.256 1408 353.594 1409.91 354.032C1411.81 354.47 1413.35 354.961 1414.52 355.515C1415.69 356.064 1416.42 356.455 1416.68 356.677C1416.84 356.576 1417.2 356.286 1417.78 355.816C1418.35 355.341 1418.95 354.697 1419.57 353.889C1420.19 353.077 1420.72 352.132 1421.15 351.044C1421.58 349.962 1421.73 348.759 1421.6 347.439C1421.42 345.708 1420.81 344.288 1419.75 343.179C1418.7 342.081 1417.34 341.195 1415.71 340.519C1412.86 339.384 1409.54 338.671 1405.75 338.381C1404.55 338.291 1403.28 338.239 1401.94 338.223L1401.67 335.504C1401.4 332.749 1398.94 330.717 1396.2 330.986L1387.25 331.873C1384.52 332.142 1382.5 334.623 1382.77 337.378L1383.07 340.398C1381.75 340.778 1380.51 341.205 1379.35 341.691C1375.77 343.169 1372.89 345 1370.71 347.17C1368.53 349.35 1367 351.789 1366.16 354.502C1365.32 357.21 1365.04 360.092 1365.34 363.143C1365.7 366.78 1366.66 369.725 1368.2 371.984C1369.75 374.249 1371.72 376.033 1374.13 377.332C1376.53 378.635 1379.25 379.533 1382.27 380.024C1385.3 380.515 1388.44 380.81 1391.67 380.905L1398.14 381.016C1401.2 381.132 1403.49 381.422 1404.99 381.897C1406.48 382.373 1407.31 383.439 1407.47 385.091C1407.63 386.664 1406.88 387.841 1405.23 388.628C1403.56 389.414 1401.06 389.979 1397.7 390.311C1394.75 390.602 1391.92 390.655 1389.21 390.465C1386.5 390.28 1384.07 389.974 1381.93 389.567C1379.77 389.15 1377.9 388.675 1376.32 388.121C1374.74 387.572 1373.59 387.081 1372.89 386.648L1367.16 400.219C1367.87 400.647 1369.11 401.254 1370.88 402.035C1372.65 402.822 1374.94 403.508 1377.72 404.11C1380.51 404.706 1383.8 405.149 1387.6 405.445C1388.23 405.493 1388.88 405.53 1389.54 405.556L1389.53 405.54Z" fill="#EFBDDB"/>
<path d="M918.717 398.061L923.959 407.652L933.507 412.883L923.964 418.124L918.728 427.678L913.487 418.13L903.891 412.899L913.481 407.657L918.717 398.061Z" fill="#EFBDDB"/>
<path d="M14.8268 401.697L20.0682 411.294L29.6166 416.525L20.0682 421.766L14.8373 431.315L9.59598 421.772L0 416.535L9.5907 411.294L14.8268 401.697Z" fill="#EFBDDB"/>
</g>
<defs>
<filter id="filter0_d_92_4187" x="-16" y="0" width="1544" height="679" filterUnits="userSpaceOnUse" color-interpolation-filters="sRGB">
<feFlood flood-opacity="0" result="BackgroundImageFix"/>
<feColorMatrix in="SourceAlpha" type="matrix" values="0 0 0 0 0 0 0 0 0 0 0 0 0 0 0 0 0 0 127 0" result="hardAlpha"/>
<feOffset dy="4"/>
<feGaussianBlur stdDeviation="8"/>
<feComposite in2="hardAlpha" operator="out"/>
<feColorMatrix type="matrix" values="0 0 0 0 0 0 0 0 0 0 0 0 0 0 0 0 0 0 0.15 0"/>
<feBlend mode="normal" in2="BackgroundImageFix" result="effect1_dropShadow_92_4187"/>
<feBlend mode="normal" in="SourceGraphic" in2="effect1_dropShadow_92_4187" result="shape"/>
</filter>
</defs>
</svg>
