<svg width="122" height="87" viewBox="0 0 122 87" fill="none" xmlns="http://www.w3.org/2000/svg"><path d="M-1 66.0151C-0.997547 67.867 -0.139601 69.6424 1.38562 70.9519C2.91083 72.2613 4.97877 72.9979 7.13575 73L100.864 73C103.021 72.9979 105.089 72.2613 106.614 70.9518C108.14 69.6424 108.998 67.867 109 66.0151L109 6.98477C108.998 5.13295 108.14 3.35758 106.614 2.04814C105.089 0.738696 103.021 0.00212405 100.864 3.17676e-06L7.13574 7.27377e-06C4.97877 0.00211308 2.91085 0.738685 1.38564 2.04813C-0.139575 3.35757 -0.997528 5.13294 -1 6.98478L-1 66.0151Z" fill="#E9EFFB"></path><path d="M12 80.0151C12.0025 81.867 12.8604 83.6424 14.3856 84.9519C15.9108 86.2613 17.9788 86.9979 20.1357 87L113.864 87C116.021 86.9979 118.089 86.2613 119.614 84.9518C121.14 83.6424 121.998 81.867 122 80.0151L122 20.9848C121.998 19.1329 121.14 17.3576 119.614 16.0481C118.089 14.7387 116.021 14.0021 113.864 14L20.1357 14C17.9788 14.0021 15.9109 14.7387 14.3856 16.0481C12.8604 17.3576 12.0025 19.1329 12 20.9848L12 80.0151Z" fill="#F5F8FC"></path><path d="M20 73.5461C20.0021 74.992 20.7353 76.3783 22.0386 77.4008C23.342 78.4232 25.1091 78.9984 26.9524 79L107.048 79C108.891 78.9983 110.658 78.4232 111.961 77.4007C113.265 76.3783 113.998 74.992 114 73.5461L114 27.4539C113.998 26.0079 113.265 24.6217 111.961 23.5992C110.658 22.5768 108.891 22.0017 107.048 22L26.9524 22C25.1091 22.0016 23.342 22.5768 22.0386 23.5992C20.7353 24.6217 20.0021 26.0079 20 27.4539L20 73.5461Z" fill="white"></path><path d="M64.9981 72.8C64.6781 72.8 64.4061 72.688 64.1821 72.464C63.9581 72.272 63.8461 72 63.8461 71.648V68.288C61.5421 68.064 59.5581 67.52 57.8941 66.656C56.2621 65.76 55.0141 64.672 54.1501 63.392C53.3181 62.08 52.8701 60.688 52.8061 59.216C52.8061 58.928 52.9021 58.688 53.0941 58.496C53.3181 58.304 53.5741 58.208 53.8621 58.208H58.1341C58.4861 58.208 58.7581 58.288 58.9501 58.448C59.1741 58.576 59.3821 58.8 59.5741 59.12C59.9261 60.208 60.6621 61.12 61.7821 61.856C62.9341 62.592 64.5181 62.96 66.5341 62.96C68.7741 62.96 70.4701 62.592 71.6221 61.856C72.7741 61.088 73.3501 60.032 73.3501 58.688C73.3501 57.792 73.0621 57.056 72.4861 56.48C71.9101 55.904 71.0301 55.408 69.8461 54.992C68.6621 54.544 66.9181 54.032 64.6141 53.456C60.8381 52.56 58.0701 51.376 56.3101 49.904C54.5821 48.4 53.7181 46.272 53.7181 43.52C53.7181 41.024 54.6141 38.928 56.4061 37.232C58.2301 35.504 60.7101 34.448 63.8461 34.064V30.752C63.8461 30.4 63.9581 30.128 64.1821 29.936C64.4061 29.712 64.6781 29.6 64.9981 29.6H67.9261C68.2461 29.6 68.5181 29.712 68.7421 29.936C68.9661 30.16 69.0781 30.432 69.0781 30.752V34.16C71.1581 34.448 72.9341 35.072 74.4061 36.032C75.9101 36.96 77.0461 38.048 77.8141 39.296C78.6141 40.544 79.0461 41.76 79.1101 42.944C79.1101 43.232 79.0141 43.472 78.8221 43.664C78.6301 43.856 78.3901 43.952 78.1021 43.952H73.6381C72.9341 43.952 72.4541 43.648 72.1981 43.04C72.0381 42.016 71.4141 41.168 70.3261 40.496C69.2381 39.792 67.8781 39.44 66.2461 39.44C64.4861 39.44 63.0941 39.776 62.0701 40.448C61.0461 41.12 60.5341 42.096 60.5341 43.376C60.5341 44.272 60.7901 45.008 61.3021 45.584C61.8141 46.16 62.6141 46.672 63.7021 47.12C64.8221 47.568 66.4221 48.064 68.5021 48.608C71.3181 49.248 73.5581 49.968 75.2221 50.768C76.9181 51.568 78.1661 52.576 78.9661 53.792C79.7661 55.008 80.1661 56.56 80.1661 58.448C80.1661 61.2 79.1741 63.456 77.1901 65.216C75.2061 66.944 72.5021 67.984 69.0781 68.336V71.648C69.0781 71.968 68.9661 72.24 68.7421 72.464C68.5181 72.688 68.2461 72.8 67.9261 72.8H64.9981Z" fill="#2864EB"></path></svg>