<?xml version="1.0" encoding="UTF-8"?>
<svg id="Capa_1" data-name="Capa 1" xmlns="http://www.w3.org/2000/svg" viewBox="0 0 1537 882">
  <defs>
    <style>
      .cls-1 {
        fill: #05535c;
      }

      .cls-2 {
        opacity: .5;
      }

      .cls-3 {
        fill-rule: evenodd;
      }

      .cls-3, .cls-4 {
        fill: #ddddddd8;
      }
    </style>
  </defs>
  <path class="cls-1" d="m0,20.1c242.48-12.5,486.47,3.8,725.11,48.5,134.74,25.2,267.97,59.5,403.83,78.1,135.85,18.6,276.24,21.1,408.06-16.6v171H0V20.1h0Z"/>
  <rect class="cls-1" y="269" width="1537" height="613"/>
  <g class="cls-2">
    <path class="cls-4" d="m1503.9,214.1l7.5,13.6,13.6,7.4-13.6,7.4-7.4,13.6-7.5-13.6-13.6-7.4,13.6-7.5,7.4-13.5Z"/>
    <path class="cls-4" d="m99.8,118.7l12.1,22.1,22,12-22,12.1-12,22.1-12.1-22.1-22.1-12,22.1-12.1,12-22.1Z"/>
    <path class="cls-4" d="m175.1,319l12.1,22.1,22,12-22,12.1-12,22.1-12.1-22.1-22.1-12,22.1-12.1,12-22.1Z"/>
    <path class="cls-3" d="m625.4,134.3l-.6,2.2c-.6,2.2.7,4.4,2.9,4.9l7,1.8c2.1.6,4.3-.8,4.9-2.9l.5-2.1c4.5.5,8.4,0,11.8-1.3,4.9-2,8-5.7,9.4-11.1.7-2.6.8-4.9.3-6.9s-1.3-3.9-2.6-5.4c-1.3-1.6-2.8-2.9-4.7-4s-3.8-2.1-5.9-3l-8.4-3.5c-2-.8-3.4-1.6-4.3-2.3-.9-.7-1.2-1.6-.9-2.7s1.1-1.8,2.4-2.2c1.3-.4,3.4-.2,6.3.5,2.6.7,4.8,1.4,6.7,2.4,1.9.9,3.5,1.8,4.8,2.6,1.3.9,2.3,1.7,3.1,2.4.7.7,1.2,1.2,1.3,1.5.1,0,.5-.1,1.1-.3.6-.2,1.2-.5,1.9-1,.7-.4,1.4-1,2-1.7s1.1-1.6,1.3-2.6c.3-1.4.3-2.6-.2-3.7s-1.3-2.2-2.3-3.1c-1.8-1.6-4.1-3.1-6.9-4.4-.9-.4-1.8-.8-2.8-1.2l.5-2.1c.6-2.1-.7-4.4-2.9-4.9l-7-1.8c-2.1-.6-4.3.8-4.9,2.9l-.6,2.4c-1.1-.1-2.2-.1-3.2-.1-3.1.1-5.8.7-8,1.7s-4.1,2.5-5.5,4.3-2.4,3.9-3,6.3c-.7,2.8-.8,5.3-.3,7.5.5,2.1,1.5,4,3,5.7,1.5,1.6,3.3,3.1,5.4,4.3,2.1,1.2,4.4,2.3,6.8,3.3l4.8,1.9c2.3.9,3.9,1.8,4.9,2.6,1,.8,1.3,1.8,1,3.1-.3,1.2-1.2,1.9-2.7,2s-3.5-.1-6.1-.8c-2.3-.6-4.5-1.3-6.4-2.2-2-.9-3.7-1.8-5.2-2.7-1.5-.9-2.8-1.8-3.8-2.6-1-.8-1.8-1.5-2.2-2.1l-8.1,8.6c.4.5,1.2,1.3,2.3,2.4s2.7,2.2,4.6,3.5c1.9,1.2,4.3,2.5,7.1,3.7.4-.2.9,0,1.4.2h0Z"/>
    <path class="cls-3" d="m777,840.1l-.1,3.1c-.1,3.1,2.3,5.7,5.4,5.9l10.1.4c3.1.1,5.7-2.3,5.8-5.4l.1-3c6.3-.7,11.5-2.5,15.7-5.3,6.1-4.1,9.3-10.1,9.6-17.9.1-3.7-.4-6.9-1.6-9.5-1.2-2.7-2.9-4.9-5.1-6.6-2.2-1.8-4.7-3.1-7.6-4.1-2.9-1-5.9-1.8-9-2.4l-12.5-2.3c-2.9-.6-5.1-1.2-6.6-1.9-1.4-.7-2.1-1.8-2.1-3.4.1-1.6.9-2.8,2.6-3.7,1.6-.9,4.6-1.3,8.7-1.1,3.7.1,7,.6,9.8,1.2,2.9.7,5.3,1.4,7.4,2.2,2,.8,3.7,1.6,4.9,2.4,1.2.8,2,1.3,2.2,1.6.2-.1.6-.4,1.3-.8.7-.4,1.5-1.1,2.3-1.9.8-.8,1.5-1.8,2.2-2.9.6-1.1,1-2.4,1.1-3.9.1-1.9-.4-3.6-1.4-5s-2.4-2.6-4.1-3.6c-3-1.7-6.5-3-10.7-3.9-1.3-.3-2.7-.5-4.2-.8l.1-3.1c.1-3.1-2.3-5.7-5.4-5.9l-10.1-.4c-3.1-.1-5.7,2.3-5.8,5.4l-.1,3.4c-1.5.2-3,.5-4.3.9-4.2,1.1-7.7,2.7-10.4,4.7-2.8,2.1-4.8,4.6-6.2,7.4-1.4,2.9-2.1,6-2.2,9.5-.2,4.1.4,7.5,1.8,10.3,1.4,2.8,3.3,5,5.7,6.8,2.5,1.8,5.3,3.2,8.6,4.2s6.7,1.8,10.3,2.4l7.2,1.1c3.4.6,5.9,1.3,7.5,2,1.6.8,2.3,2.1,2.3,3.9-.1,1.8-1.1,3-3,3.6-2,.6-4.8.9-8.6.7-3.3-.1-6.5-.5-9.4-1.1-3-.6-5.6-1.3-7.9-2.1-2.3-.8-4.3-1.6-6-2.5s-2.9-1.6-3.6-2.2l-8.4,14.2c.7.6,2,1.4,3.8,2.6,1.8,1.1,4.3,2.3,7.3,3.4,3,1.1,6.6,2.1,10.7,3,.4.1,1.2.2,1.9.4h0Z"/>
    <path class="cls-3" d="m1244,266.1l-.1,3.1c-.1,3.1,2.3,5.7,5.4,5.9l10.1.4c3.1.1,5.7-2.3,5.8-5.4l.1-3c6.3-.7,11.5-2.5,15.7-5.3,6.1-4.1,9.3-10.1,9.6-17.9.2-3.7-.4-6.9-1.6-9.5-1.2-2.7-2.9-4.9-5.1-6.6-2.2-1.8-4.7-3.1-7.6-4.1s-5.9-1.8-9-2.4l-12.5-2.3c-2.9-.6-5.1-1.2-6.6-1.9-1.4-.7-2.1-1.8-2.1-3.4.1-1.6.9-2.8,2.6-3.7s4.6-1.3,8.7-1.1c3.7.1,7,.6,9.8,1.2,2.9.7,5.3,1.4,7.4,2.2,2,.8,3.7,1.6,4.9,2.4,1.2.8,2,1.3,2.2,1.6.2-.1.6-.4,1.3-.8.7-.4,1.5-1.1,2.3-1.9.8-.8,1.5-1.8,2.2-2.9.6-1.1,1-2.4,1.1-3.9.1-1.9-.4-3.6-1.4-5s-2.4-2.6-4.1-3.6c-3-1.7-6.6-3-10.7-3.9-1.3-.3-2.7-.5-4.2-.8l.1-3.1c.1-3.1-2.3-5.7-5.4-5.9l-10.1-.4c-3.1-.1-5.7,2.3-5.8,5.4l-.1,3.4c-1.5.2-3,.5-4.3.9-4.2,1.1-7.7,2.7-10.4,4.7-2.8,2.1-4.8,4.6-6.2,7.4-1.4,2.9-2.1,6-2.2,9.5-.2,4.1.4,7.5,1.8,10.3s3.3,5,5.7,6.8c2.5,1.8,5.3,3.2,8.6,4.2,3.3,1,6.7,1.8,10.3,2.4l7.2,1.1c3.4.6,5.9,1.3,7.5,2,1.6.8,2.3,2.1,2.3,3.9-.1,1.8-1.1,3-3,3.6-2,.6-4.8.9-8.6.7-3.3-.1-6.5-.5-9.4-1.1-3-.6-5.6-1.3-7.9-2.1s-4.3-1.6-6-2.5-2.9-1.6-3.6-2.2l-8.4,14.2c.7.6,2,1.4,3.8,2.6,1.8,1.1,4.3,2.3,7.3,3.4s6.6,2.1,10.7,3c.5.1,1.2.2,1.9.4h0Z"/>
    <path class="cls-3" d="m236.3,111.6l.3,2.8c.3,2.8,2.7,4.8,5.5,4.5l9-.9c2.7-.3,4.8-2.8,4.5-5.5l-.3-2.6c5.5-1.4,9.9-3.6,13.2-6.6,4.9-4.4,6.9-10.1,6.3-17-.3-3.3-1.2-6-2.6-8.2s-3.2-3.9-5.4-5.2c-2.2-1.3-4.6-2.2-7.2-2.7-2.7-.5-5.4-.9-8.2-1l-11.4-.7c-2.7-.1-4.7-.5-6-.9-1.4-.4-2.1-1.4-2.3-2.8-.1-1.4.5-2.6,1.8-3.6s3.9-1.7,7.5-2.1c3.3-.3,6.2-.4,8.9-.1,2.6.2,4.9.6,6.8,1s3.4.9,4.6,1.5c1.2.5,1.9.9,2.2,1.2.2-.1.5-.4,1.1-.9s1.2-1.1,1.8-1.9c.6-.8,1.1-1.8,1.6-2.8.4-1.1.6-2.3.4-3.6-.2-1.7-.8-3.2-1.8-4.3-1.1-1.1-2.4-2-4-2.7-2.8-1.1-6.2-1.8-10-2.1-1.2-.1-2.5-.1-3.8-.2l-.3-2.7c-.3-2.8-2.7-4.8-5.5-4.5l-9,.9c-2.7.3-4.8,2.8-4.5,5.5l.3,3c-1.3.4-2.6.8-3.7,1.3-3.6,1.5-6.5,3.3-8.6,5.5-2.2,2.2-3.7,4.6-4.5,7.3s-1.1,5.6-.8,8.6c.4,3.6,1.3,6.6,2.9,8.8,1.5,2.3,3.5,4,5.9,5.3s5.1,2.2,8.1,2.7,6.2.8,9.4.9l6.5.1c3.1.1,5.4.4,6.9.9s2.3,1.5,2.5,3.2c.2,1.6-.6,2.8-2.2,3.5-1.7.8-4.2,1.4-7.5,1.7-2.9.3-5.8.3-8.5.2-2.7-.2-5.1-.5-7.3-.9s-4-.9-5.6-1.4-2.7-1-3.4-1.5l-5.7,13.6c.7.4,1.9,1,3.7,1.8s4.1,1.5,6.8,2.1c2.8.6,6.1,1,9.9,1.3.4.1,1.1.2,1.7.2h0Z"/>
    <path class="cls-3" d="m134.3,536.6l.3,2.8c.3,2.8,2.7,4.8,5.5,4.5l9-.9c2.7-.3,4.8-2.8,4.5-5.5l-.3-2.6c5.5-1.4,9.9-3.6,13.2-6.6,4.9-4.4,6.9-10.1,6.3-17-.3-3.3-1.2-6-2.6-8.2-1.4-2.2-3.2-3.9-5.4-5.2-2.2-1.3-4.6-2.2-7.2-2.7-2.7-.5-5.4-.9-8.2-1l-11.3-.5c-2.7-.1-4.7-.5-6-.9-1.4-.4-2.1-1.4-2.3-2.8-.1-1.4.5-2.6,1.8-3.6s3.9-1.7,7.5-2.1c3.3-.3,6.2-.4,8.9-.1,2.6.2,4.9.6,6.8,1,1.9.4,3.4.9,4.6,1.5,1.2.5,1.9.9,2.2,1.2.2-.1.5-.4,1.1-.9s1.2-1.1,1.8-1.9,1.1-1.8,1.6-2.8c.4-1.1.6-2.3.4-3.6-.2-1.7-.8-3.2-1.8-4.3-1.1-1.1-2.4-2-4-2.7-2.8-1.1-6.2-1.8-10-2.1-1.2-.1-2.5-.1-3.8-.2l-.3-2.7c-.3-2.8-2.7-4.8-5.5-4.5l-9,.9c-2.7.3-4.8,2.8-4.5,5.5l.3,3c-1.3.4-2.6.8-3.7,1.3-3.6,1.5-6.5,3.3-8.6,5.5-2.2,2.2-3.7,4.6-4.6,7.3-.8,2.7-1.1,5.6-.8,8.6.4,3.6,1.3,6.6,2.9,8.8,1.5,2.3,3.5,4,5.9,5.3s5.1,2.2,8.1,2.7c3,.5,6.2.8,9.4.9l6.5.1c3.1.1,5.4.4,6.9.9s2.3,1.5,2.5,3.2c.2,1.6-.6,2.8-2.2,3.5-1.7.8-4.2,1.4-7.5,1.7-2.9.3-5.8.3-8.5.2-2.7-.2-5.1-.5-7.3-.9s-4-.9-5.6-1.4-2.7-1-3.4-1.5l-5.7,13.6c.7.4,1.9,1,3.7,1.8,1.8.8,4.1,1.5,6.8,2.1,2.8.6,6.1,1,9.9,1.3.4-.1,1.1,0,1.7,0h0Z"/>
    <path class="cls-3" d="m52.3,294.6l.3,2.8c.3,2.8,2.7,4.8,5.5,4.5l9-.9c2.7-.3,4.8-2.8,4.5-5.5l-.3-2.6c5.5-1.4,9.9-3.6,13.2-6.6,4.9-4.4,6.9-10.1,6.3-17-.3-3.3-1.2-6-2.6-8.2s-3.2-3.9-5.4-5.2c-2.2-1.3-4.6-2.2-7.2-2.7-2.7-.5-5.4-.9-8.2-1l-11.4-.7c-2.7-.1-4.7-.5-6-.9-1.4-.4-2.1-1.4-2.3-2.8-.1-1.4.5-2.6,1.8-3.6s3.9-1.7,7.5-2.1c3.3-.3,6.2-.4,8.9-.1,2.6.2,4.9.6,6.8,1s3.4.9,4.6,1.5c1.2.5,1.9.9,2.2,1.2.2-.1.5-.4,1.1-.9s1.2-1.1,1.8-1.9c.6-.8,1.1-1.8,1.6-2.8.4-1.1.6-2.3.4-3.6-.2-1.7-.8-3.2-1.8-4.3-1.1-1.1-2.4-2-4-2.7-2.8-1.1-6.2-1.8-10-2.1-1.2-.1-2.5-.1-3.8-.2l-.3-2.7c-.3-2.8-2.7-4.8-5.5-4.5l-9,.9c-2.7.3-4.8,2.8-4.5,5.5l.3,3c-1.3.4-2.6.8-3.7,1.3-3.6,1.5-6.5,3.3-8.6,5.5-2.2,2.2-3.7,4.6-4.5,7.3s-1.1,5.6-.8,8.6c.4,3.6,1.3,6.6,2.9,8.8,1.5,2.3,3.5,4,5.9,5.3s5.1,2.2,8.1,2.7,6.2.8,9.4.9l6.5.1c3.1.1,5.4.4,6.9.9s2.3,1.5,2.5,3.2c.2,1.6-.6,2.8-2.2,3.5-1.7.8-4.2,1.4-7.5,1.7-3,.3-5.8.3-8.5.2-2.7-.2-5.1-.5-7.3-.9s-4-.9-5.6-1.4-2.7-1-3.4-1.5l-5.7,13.6c.7.4,1.9,1,3.7,1.8s4.1,1.5,6.8,2.1c2.8.6,6.1,1,9.9,1.3.4.1,1.1.2,1.7.2h0Z"/>
    <path class="cls-3" d="m1315.3,684.6l.3,2.8c.3,2.8,2.7,4.8,5.5,4.5l8.9-.9c2.7-.3,4.8-2.8,4.5-5.5l-.3-2.6c5.5-1.4,9.9-3.6,13.2-6.6,4.9-4.4,7-10.1,6.3-17-.3-3.3-1.2-6-2.6-8.2s-3.2-3.9-5.4-5.2c-2.2-1.3-4.6-2.2-7.2-2.7-2.7-.5-5.4-.9-8.2-1l-11.3-.5c-2.7-.1-4.7-.5-6-.9-1.4-.4-2.1-1.4-2.3-2.8-.1-1.4.5-2.6,1.8-3.6s3.9-1.7,7.6-2.1c3.3-.3,6.2-.4,8.9-.1,2.6.2,4.9.6,6.8,1s3.4.9,4.6,1.5c1.2.5,1.9.9,2.2,1.2.2-.1.5-.4,1.1-.9s1.2-1.1,1.8-1.9c.6-.8,1.1-1.8,1.6-2.8.4-1.1.6-2.3.4-3.6-.2-1.7-.8-3.2-1.8-4.3-1.1-1.1-2.4-2-4.1-2.7-2.8-1.1-6.2-1.8-9.9-2.1-1.2-.1-2.5-.1-3.8-.2l-.3-2.7c-.3-2.8-2.7-4.8-5.5-4.5l-8.9.9c-2.7.3-4.8,2.8-4.5,5.5l.3,3c-1.3.4-2.6.8-3.7,1.3-3.6,1.5-6.4,3.3-8.6,5.5s-3.7,4.6-4.6,7.3c-.8,2.7-1.1,5.6-.8,8.6.4,3.6,1.3,6.6,2.9,8.8,1.6,2.3,3.5,4,5.9,5.3s5.1,2.2,8.1,2.7,6.2.8,9.4.9l6.5.1c3.1.1,5.3.4,6.8.9s2.3,1.5,2.5,3.2c.2,1.6-.6,2.8-2.2,3.5-1.7.8-4.2,1.4-7.5,1.7-2.9.3-5.8.3-8.5.2-2.7-.2-5.1-.5-7.3-.9-2.1-.4-4-.9-5.6-1.4s-2.7-1-3.4-1.5l-5.7,13.6c.7.4,1.9,1,3.7,1.8,1.8.8,4,1.5,6.8,2.1s6.1,1,9.9,1.3c.4-.1,1.1,0,1.7,0h0Z"/>
    <path class="cls-4" d="m415.7,100.5l7.6,13.9,13.9,7.6-13.9,7.6-7.6,13.9-7.6-13.9-13.9-7.6,13.9-7.6,7.6-13.9Z"/>
    <path class="cls-4" d="m1411.5,537l7.6,13.9,13.8,7.6-13.8,7.6-7.6,13.9-7.6-13.9-13.9-7.6,13.9-7.6,7.6-13.9Z"/>
    <path class="cls-4" d="m1340.5,776l17.5,31.9,32,17.5-32,17.6-17.5,32-17.5-32-32-17.5,32-17.5,17.5-32Z"/>
    <path class="cls-4" d="m134.5,783l17.5,31.9,32,17.5-32,17.6-17.5,32-17.5-32-32-17.5,32-17.5,17.5-32Z"/>
    <path class="cls-4" d="m1070,783l7.4,13.6,13.7,7.4-13.6,7.4-7.4,13.7-7.5-13.6-13.6-7.4,13.6-7.5,7.4-13.6Z"/>
    <path class="cls-3" d="m1402.5,393.5l.3,2.8c.3,2.8,2.7,4.8,5.5,4.5l8.9-.9c2.7-.3,4.8-2.8,4.5-5.5l-.3-2.6c5.5-1.4,9.9-3.6,13.2-6.6,4.9-4.4,7-10.1,6.3-17-.3-3.3-1.2-6-2.6-8.2s-3.2-3.9-5.4-5.2c-2.2-1.3-4.6-2.2-7.2-2.7-2.7-.5-5.4-.9-8.2-1l-11.3-.5c-2.7-.1-4.7-.5-6-.9-1.4-.4-2.1-1.4-2.3-2.8-.1-1.4.5-2.6,1.8-3.6s3.9-1.7,7.6-2.1c3.3-.3,6.2-.4,8.9-.1,2.6.2,4.9.6,6.8,1s3.4.9,4.6,1.5c1.2.5,1.9.9,2.2,1.2.2-.1.5-.4,1.1-.9s1.2-1.1,1.8-1.9c.6-.8,1.2-1.8,1.6-2.8.4-1.1.6-2.3.4-3.6-.2-1.7-.8-3.2-1.8-4.3-1.1-1.1-2.4-2-4-2.7-2.8-1.1-6.2-1.8-10-2.1-1.2-.1-2.5-.1-3.8-.2l-.3-2.7c-.3-2.8-2.7-4.8-5.5-4.5l-8.9.9c-2.7.3-4.8,2.8-4.5,5.5l.3,3c-1.3.4-2.6.8-3.7,1.3-3.6,1.5-6.5,3.3-8.6,5.5-2.2,2.2-3.7,4.6-4.5,7.3-.8,2.7-1.1,5.6-.8,8.6.4,3.6,1.3,6.6,2.9,8.8,1.6,2.3,3.5,4,5.9,5.3s5.1,2.2,8.1,2.7,6.2.8,9.4.9l6.5.1c3.1.1,5.3.4,6.8.9s2.3,1.5,2.5,3.2c.2,1.6-.6,2.8-2.2,3.5-1.7.8-4.2,1.4-7.5,1.7-2.9.3-5.8.3-8.5.2-2.7-.2-5.1-.5-7.3-.9-2.2-.4-4-.9-5.6-1.4s-2.7-1-3.4-1.5l-5.7,13.6c.7.4,1.9,1,3.7,1.8,1.8.8,4.1,1.5,6.8,2.1,2.8.6,6.1,1,9.9,1.3.3,0,1,0,1.6,0h0Z"/>
    <path class="cls-4" d="m1136.8,184l5.2,9.6,9.6,5.2-9.6,5.2-5.2,9.6-5.2-9.5-9.6-5.2,9.6-5.2,5.2-9.7Z"/>
    <path class="cls-4" d="m27.8,389.7l5.2,9.6,9.5,5.2-9.5,5.2-5.2,9.5-5.2-9.5-9.6-5.2,9.6-5.2,5.2-9.6Z"/>
  </g>
</svg>