<svg width="469.20000000000005" height="149.48414904809675" viewBox="0 0 370 117.8796571777404" class="looka-1j8o68f"><defs id="SvgjsDefs4205"></defs><g id="SvgjsG4207" featurekey="nameFeature-0" transform="matrix(1.019560927306345,0,0,1.019560927306345,87.04327321357869,32.765270816981996)" fill="#1b1b1b"><path d="M22.64 17.68 l-6.34 0 l0 16.64 l6.34 0 c0.36 0 0.6 0.24 0.6 0.6 l0 4.48 c0 0.36 -0.24 0.6 -0.6 0.6 l-19.14 0 c-0.36 0 -0.6 -0.24 -0.6 -0.6 l0 -4.48 c0 -0.36 0.24 -0.6 0.6 -0.6 l6.34 0 l0 -16.64 l-6.34 0 c-0.36 0 -0.6 -0.24 -0.6 -0.6 l0 -4.48 c0 -0.36 0.24 -0.6 0.6 -0.6 l19.14 0 c0.36 0 0.6 0.24 0.6 0.6 l0 4.48 c0 0.36 -0.24 0.6 -0.6 0.6 z M53.092 12 c0.36 0 0.6 0.24 0.6 0.6 l0 26.8 c0 0.36 -0.24 0.6 -0.6 0.6 l-5.92 0 c-0.32 0 -0.56 -0.12 -0.72 -0.4 l-9.54 -17.14 l0 16.94 c0 0.36 -0.24 0.6 -0.6 0.6 l-5.26 0 c-0.36 0 -0.6 -0.24 -0.6 -0.6 l0 -26.8 c0 -0.36 0.24 -0.6 0.6 -0.6 l5.9 0 c0.32 0 0.56 0.12 0.72 0.4 l9.54 17.12 l0 -16.92 c0 -0.36 0.24 -0.6 0.6 -0.6 l5.28 0 z M78.78399999999999 12.48 c0.12 -0.36 0.36 -0.48 0.68 -0.48 l5.48 0 c0.44 0 0.62 0.28 0.48 0.68 l-9.8 26.84 c-0.12 0.32 -0.46 0.48 -0.78 0.48 l-4.8 0 c-0.32 0 -0.56 -0.16 -0.68 -0.48 l-9.8 -26.84 c-0.14 -0.4 0.04 -0.68 0.48 -0.68 l5.48 0 c0.32 0 0.58 0.12 0.68 0.48 l6.3 19.02 z M109.436 34.32 c0.36 0 0.6 0.24 0.6 0.6 l0 4.48 c0 0.36 -0.24 0.6 -0.6 0.6 l-17.54 0 c-0.36 0 -0.6 -0.24 -0.6 -0.6 l0 -26.8 c0 -0.36 0.24 -0.6 0.6 -0.6 l17.5 0 c0.36 0 0.6 0.24 0.6 0.6 l0 4.48 c0 0.36 -0.24 0.6 -0.6 0.6 l-11.64 0 l0 5.38 l10.66 0 c0.36 0 0.6 0.24 0.6 0.6 l0 4.48 c0 0.36 -0.24 0.6 -0.6 0.6 l-10.66 0 l0 5.58 l11.68 0 z M133.828 30.060000000000002 l4.88 9.24 c0.22 0.42 -0.02 0.7 -0.48 0.7 l-5.16 0 c-0.34 0 -0.54 -0.14 -0.7 -0.46 l-4.38 -8.64 l-0.48 0 l-4 0 l0 8.5 c0 0.36 -0.24 0.6 -0.6 0.6 l-5.26 0 c-0.36 0 -0.6 -0.24 -0.6 -0.6 l0 -26.8 c0 -0.36 0.24 -0.6 0.6 -0.6 l9.86 0 c8.82 0 11.46 3.14 11.46 9.44 c0 4.44 -1.3 7.3 -5.14 8.62 z M123.508 17.68 l0 7.54 l4.46 0 c3.18 0 4.82 -0.68 4.82 -3.78 c0 -3.06 -1.64 -3.76 -4.82 -3.76 l-4.46 0 z M165.32 12 c0.36 0 0.6 0.24 0.6 0.6 l0 4.48 c0 0.36 -0.24 0.6 -0.6 0.6 l-7.24 0 l0 21.72 c0 0.36 -0.24 0.6 -0.6 0.6 l-5.26 0 c-0.36 0 -0.6 -0.24 -0.6 -0.6 l0 -21.72 l-7.24 0 c-0.36 0 -0.6 -0.24 -0.6 -0.6 l0 -4.48 c0 -0.36 0.24 -0.6 0.6 -0.6 l20.94 0 z M190.072 34.32 c0.36 0 0.6 0.24 0.6 0.6 l0 4.48 c0 0.36 -0.24 0.6 -0.6 0.6 l-17.34 0 c-0.36 0 -0.6 -0.24 -0.6 -0.6 l0 -26.8 c0 -0.36 0.24 -0.6 0.6 -0.6 l5.26 0 c0.36 0 0.6 0.24 0.6 0.6 l0 21.72 l11.48 0 z M215.124 34.32 c0.36 0 0.6 0.24 0.6 0.6 l0 4.48 c0 0.36 -0.24 0.6 -0.6 0.6 l-17.54 0 c-0.36 0 -0.6 -0.24 -0.6 -0.6 l0 -26.8 c0 -0.36 0.24 -0.6 0.6 -0.6 l17.5 0 c0.36 0 0.6 0.24 0.6 0.6 l0 4.48 c0 0.36 -0.24 0.6 -0.6 0.6 l-11.64 0 l0 5.38 l10.66 0 c0.36 0 0.6 0.24 0.6 0.6 l0 4.48 c0 0.36 -0.24 0.6 -0.6 0.6 l-10.66 0 l0 5.58 l11.68 0 z M245.376 12 c0.36 0 0.6 0.24 0.6 0.6 l0 26.8 c0 0.36 -0.24 0.6 -0.6 0.6 l-5.92 0 c-0.32 0 -0.56 -0.12 -0.72 -0.4 l-9.54 -17.14 l0 16.94 c0 0.36 -0.24 0.6 -0.6 0.6 l-5.26 0 c-0.36 0 -0.6 -0.24 -0.6 -0.6 l0 -26.8 c0 -0.36 0.24 -0.6 0.6 -0.6 l5.9 0 c0.32 0 0.56 0.12 0.72 0.4 l9.54 17.12 l0 -16.92 c0 -0.36 0.24 -0.6 0.6 -0.6 l5.28 0 z M262.82800000000003 12 c9.56 0 14.7 6.24 14.7 14 s-5.14 14 -14.7 14 l-8.54 0 c-0.36 0 -0.6 -0.24 -0.6 -0.6 l0 -26.8 c0 -0.36 0.24 -0.6 0.6 -0.6 l8.54 0 z M262.82800000000003 34.32 c5.42 0 8.14 -3 8.14 -8.32 s-2.72 -8.32 -8.14 -8.32 l-2.68 0 l0 16.64 l2.68 0 z"></path></g></svg>