<svg width="613" height="476" viewBox="0 0 613 476" fill="none" xmlns="http://www.w3.org/2000/svg">
<g opacity="0.41">
<path d="M591.283 134.136L598.79 147.884L612.534 155.385L598.796 162.828L591.299 176.581L583.797 162.834L570.117 155.401L583.786 147.889L591.283 134.136Z" fill="#FFA500"/>
<path fill-rule="evenodd" clip-rule="evenodd" d="M450.972 466.743L450.409 468.935C449.85 471.106 451.153 473.34 453.306 473.894L460.351 475.713C462.504 476.272 464.721 474.947 465.285 472.776L465.822 470.691C470.357 471.17 474.329 470.717 477.726 469.339C482.639 467.35 485.802 463.626 487.211 458.167C487.881 455.571 487.982 453.24 487.519 451.176C487.057 449.112 486.18 447.292 484.909 445.718C483.628 444.138 482.054 442.786 480.182 441.637C478.311 440.499 476.317 439.482 474.212 438.594L465.742 435.051C463.764 434.194 462.318 433.401 461.398 432.683C460.484 431.96 460.17 431.05 460.457 429.943C460.744 428.842 461.537 428.092 462.839 427.698C464.142 427.304 466.247 427.485 469.145 428.235C471.723 428.9 473.978 429.693 475.908 430.608C477.838 431.523 479.465 432.406 480.788 433.268C482.112 434.136 483.144 434.934 483.877 435.678C484.611 436.423 485.058 436.918 485.196 437.163C485.34 437.131 485.701 437.014 486.265 436.812C486.834 436.609 487.466 436.29 488.163 435.849C488.859 435.402 489.524 434.832 490.151 434.125C490.779 433.423 491.225 432.55 491.496 431.507C491.847 430.145 491.773 428.895 491.278 427.757C490.779 426.629 490.002 425.575 488.95 424.612C487.105 422.958 484.781 421.489 481.985 420.213C481.097 419.808 480.145 419.414 479.135 419.031L479.688 416.887C480.246 414.722 478.944 412.488 476.79 411.934L469.746 410.115C467.592 409.556 465.37 410.881 464.812 413.046L464.2 415.424C463.089 415.345 462.026 415.323 461.01 415.366C457.884 415.493 455.188 416.084 452.929 417.127C450.664 418.175 448.83 419.606 447.431 421.431C446.033 423.256 445.023 425.368 444.406 427.773C443.667 430.635 443.571 433.141 444.119 435.29C444.667 437.439 445.666 439.344 447.134 441.004C448.596 442.664 450.409 444.106 452.567 445.319C454.731 446.537 457.028 447.633 459.458 448.601L464.333 450.485C466.63 451.426 468.284 452.288 469.288 453.065C470.288 453.842 470.623 454.884 470.288 456.183C469.969 457.422 469.07 458.103 467.592 458.247C466.114 458.38 464.051 458.108 461.409 457.428C459.091 456.826 456.927 456.081 454.923 455.182C452.918 454.289 451.158 453.379 449.643 452.469C448.123 451.554 446.841 450.671 445.789 449.809C444.736 448.952 444.007 448.255 443.593 447.734L435.469 456.449C435.883 456.97 436.654 457.773 437.782 458.864C438.909 459.955 440.456 461.114 442.402 462.349C444.353 463.578 446.724 464.833 449.526 466.11C449.994 466.323 450.478 466.53 450.972 466.738V466.743Z" fill="#FFA500"/>
<path fill-rule="evenodd" clip-rule="evenodd" d="M232.585 331.522L232.463 334.677C232.341 337.805 234.776 340.46 237.876 340.583L248.015 340.982C251.114 341.104 253.751 338.646 253.874 335.523L253.991 332.522C260.317 331.836 265.597 330.049 269.824 327.165C275.938 323.005 279.149 316.993 279.458 309.135C279.607 305.395 279.059 302.187 277.815 299.516C276.576 296.84 274.848 294.616 272.642 292.844C270.43 291.073 267.888 289.684 264.996 288.678C262.109 287.678 259.095 286.88 255.963 286.29L243.368 283.959C240.417 283.38 238.211 282.725 236.754 282.012C235.297 281.299 234.601 280.15 234.659 278.554C234.723 276.963 235.584 275.713 237.248 274.793C238.907 273.872 241.831 273.495 246.005 273.659C249.716 273.808 253.023 274.223 255.926 274.899C258.824 275.575 261.306 276.304 263.369 277.086C265.427 277.873 267.07 278.66 268.293 279.464C269.515 280.262 270.265 280.805 270.531 281.102C270.717 281.012 271.174 280.746 271.887 280.31C272.599 279.868 273.37 279.24 274.194 278.432C275.013 277.618 275.747 276.644 276.401 275.495C277.049 274.351 277.405 273.026 277.464 271.531C277.544 269.568 277.07 267.887 276.06 266.482C275.05 265.089 273.678 263.886 271.956 262.881C268.952 261.168 265.358 259.853 261.163 258.938C259.834 258.646 258.425 258.39 256.925 258.172L257.048 255.092C257.17 251.974 254.735 249.314 251.635 249.192L241.496 248.793C238.397 248.67 235.76 251.128 235.637 254.246L235.504 257.667C233.968 257.885 232.511 258.172 231.139 258.529C226.918 259.625 223.414 261.221 220.639 263.312C217.858 265.408 215.779 267.898 214.413 270.797C213.047 273.697 212.292 276.873 212.153 280.331C211.989 284.449 212.595 287.891 213.977 290.663C215.354 293.435 217.284 295.733 219.767 297.563C222.25 299.399 225.147 300.825 228.449 301.841C231.756 302.862 235.212 303.676 238.811 304.288L246.015 305.416C249.423 306.022 251.933 306.703 253.533 307.47C255.128 308.236 255.889 309.555 255.814 311.422C255.745 313.205 254.724 314.402 252.752 315.03C250.774 315.652 247.882 315.891 244.08 315.737C240.741 315.604 237.573 315.221 234.574 314.588C231.581 313.96 228.912 313.237 226.578 312.449C224.238 311.651 222.223 310.827 220.543 309.959C218.858 309.103 217.656 308.369 216.938 307.778L208.432 322.058C209.149 322.648 210.441 323.515 212.297 324.664C214.158 325.819 216.603 326.942 219.623 328.048C222.643 329.149 226.253 330.155 230.443 331.075C231.145 331.23 231.862 331.368 232.601 331.506L232.585 331.522Z" fill="#FFA500"/>
<path fill-rule="evenodd" clip-rule="evenodd" d="M39.0874 170.766L38.9651 173.921C38.8428 177.049 41.2779 179.704 44.3776 179.826L54.5165 180.226C57.6162 180.348 60.2533 177.89 60.3755 174.767L60.4925 171.766C66.8194 171.08 72.0989 169.292 76.3257 166.409C82.4399 162.248 85.6512 156.237 85.9596 148.379C86.1085 144.639 85.5608 141.43 84.3167 138.76C83.0779 136.084 81.35 133.86 79.1435 132.088C76.9318 130.316 74.3904 128.928 71.4981 127.922C68.6111 126.922 65.5965 126.124 62.465 125.534L49.8697 123.203C46.9189 122.623 44.7125 121.969 43.2557 121.256C41.7989 120.543 41.1024 119.394 41.1609 117.798C41.2247 116.207 42.086 114.957 43.7502 114.037C45.409 113.116 48.3332 112.738 52.5068 112.903C56.2178 113.052 59.5249 113.467 62.4278 114.143C65.3254 114.819 67.8083 115.547 69.8712 116.33C71.9288 117.117 73.5716 117.904 74.7945 118.708C76.0173 119.506 76.767 120.048 77.0328 120.346C77.2189 120.256 77.6761 119.99 78.3886 119.554C79.101 119.112 79.8719 118.484 80.696 117.676C81.5148 116.862 82.2485 115.888 82.9025 114.739C83.5511 113.595 83.9073 112.27 83.9658 110.775C84.0456 108.812 83.5724 107.131 82.5622 105.726C81.552 104.332 80.1803 103.13 78.4577 102.125C75.4538 100.411 71.8596 99.0974 67.6647 98.1823C66.3356 97.8897 64.9267 97.6343 63.4273 97.4162L63.5496 94.3358C63.6719 91.2181 61.2369 88.558 58.1372 88.4356L47.9982 88.0366C44.8986 87.9142 42.2615 90.3722 42.1392 93.4898L42.0063 96.9107C40.4697 97.1289 39.013 97.4162 37.6413 97.7726C33.4198 98.8686 29.9161 100.465 27.1408 102.556C24.3601 104.652 22.2813 107.142 20.9149 110.041C19.5485 112.941 18.7935 116.117 18.6553 119.575C18.4905 123.693 19.0965 127.135 20.4789 129.907C21.8559 132.679 23.7859 134.977 26.2688 136.807C28.7517 138.643 31.6493 140.068 34.951 141.085C38.258 142.106 41.7138 142.92 45.3133 143.532L52.5174 144.66C55.9254 145.266 58.4349 145.947 60.0353 146.713C61.6303 147.48 62.3906 148.799 62.3162 150.666C62.247 152.449 61.2262 153.646 59.2537 154.273C57.2759 154.896 54.3836 155.135 50.5821 154.981C47.2432 154.848 44.0745 154.465 41.0758 153.832C38.0825 153.204 35.4136 152.481 33.0795 151.693C30.7402 150.895 28.7251 150.07 27.045 149.203C25.3596 148.347 24.1581 147.613 23.4403 147.022L14.9336 161.301C15.6514 161.892 16.9433 162.759 18.7988 163.908C20.6596 165.063 23.1053 166.185 26.1252 167.292C29.1451 168.393 32.7552 169.399 36.9447 170.319C37.6466 170.474 38.3643 170.612 39.1034 170.75L39.0874 170.766Z" fill="#FFA500"/>
<path fill-rule="evenodd" clip-rule="evenodd" d="M389.55 75.167L389.826 77.9761C390.103 80.7586 392.586 82.8069 395.34 82.5302L404.357 81.6364C407.111 81.3651 409.142 78.8646 408.865 76.0874L408.6 73.422C414.113 72.0334 418.563 69.8042 421.945 66.7345C426.841 62.3027 428.941 56.5888 428.25 49.6033C427.921 46.2782 427.043 43.5064 425.613 41.2985C424.188 39.0852 422.386 37.3296 420.217 36.0368C418.042 34.7386 415.623 33.8289 412.943 33.2915C410.264 32.7595 407.499 32.4296 404.66 32.2913L393.234 31.7859C390.555 31.6369 388.524 31.3284 387.141 30.8815C385.764 30.4292 385.004 29.4982 384.866 28.083C384.728 26.6678 385.334 25.4548 386.695 24.4387C388.051 23.4225 390.587 22.7255 394.298 22.3584C397.594 22.0286 400.577 21.9914 403.225 22.2308C405.872 22.4702 408.153 22.8107 410.072 23.2522C411.992 23.6938 413.539 24.1886 414.719 24.7472C415.9 25.3005 416.628 25.6942 416.899 25.9177C417.053 25.8166 417.42 25.524 418 25.0505C418.574 24.5717 419.18 23.9226 419.807 23.1086C420.435 22.2893 420.961 21.337 421.397 20.241C421.833 19.1503 421.982 17.9373 421.849 16.6073C421.673 14.8622 421.057 13.4311 419.988 12.3139C418.925 11.2073 417.558 10.3135 415.915 9.63246C413.05 8.48861 409.705 7.77038 405.888 7.47777C404.676 7.38733 403.4 7.33412 402.049 7.31816L401.778 4.57825C401.502 1.80109 399.024 -0.2472 396.27 0.024132L387.253 0.91793C384.499 1.18926 382.468 3.68977 382.739 6.46693L383.042 9.5101C381.708 9.89315 380.458 10.3241 379.289 10.8136C375.689 12.3032 372.786 14.1493 370.59 16.336C368.389 18.5332 366.858 20.9911 366.008 23.7257C365.157 26.455 364.88 29.3599 365.183 32.435C365.545 36.1006 366.507 39.0693 368.065 41.3463C369.623 43.6287 371.611 45.427 374.036 46.7357C376.455 48.0498 379.193 48.9543 382.239 49.449C385.291 49.9438 388.449 50.2418 391.703 50.3375L398.216 50.4492C401.305 50.5663 403.607 50.8589 405.117 51.3377C406.622 51.8165 407.457 52.8912 407.621 54.5565C407.781 56.1419 407.021 57.3283 405.356 58.121C403.682 58.9137 401.156 59.483 397.775 59.8182C394.803 60.1108 391.953 60.164 389.226 59.9725C386.498 59.7863 384.052 59.4777 381.888 59.068C379.719 58.6477 377.837 58.1689 376.242 57.6103C374.647 57.057 373.493 56.5622 372.786 56.1259L367.018 69.8042C367.725 70.2352 368.974 70.847 370.761 71.6344C372.547 72.4271 374.849 73.1187 377.656 73.7253C380.464 74.3264 383.776 74.7733 387.599 75.0713C388.237 75.1191 388.891 75.1564 389.56 75.183L389.55 75.167Z" fill="#FFA500"/>
<path d="M193.064 421.266L200.725 435.29L214.682 442.946L200.731 450.607L193.08 464.573L185.424 450.612L171.398 442.962L185.419 435.295L193.064 421.266Z" fill="#FFA500"/>
<path fill-rule="evenodd" clip-rule="evenodd" d="M489.175 315.008L489.451 317.817C489.728 320.6 492.211 322.648 494.965 322.372L503.982 321.478C506.736 321.206 508.767 318.706 508.491 315.929L508.225 313.263C513.738 311.875 518.188 309.646 521.57 306.576C526.466 302.144 528.567 296.43 527.875 289.445C527.546 286.119 526.668 283.348 525.238 281.14C523.813 278.927 522.011 277.171 519.842 275.878C517.667 274.58 515.248 273.67 512.569 273.133C509.889 272.601 507.124 272.271 504.285 272.133L492.859 271.627C490.18 271.478 488.149 271.17 486.766 270.723C485.389 270.271 484.629 269.339 484.491 267.924C484.353 266.509 484.959 265.296 486.32 264.28C487.676 263.264 490.212 262.567 493.923 262.2C497.219 261.87 500.202 261.833 502.85 262.072C505.497 262.311 507.778 262.652 509.697 263.094C511.617 263.535 513.164 264.03 514.344 264.589C515.525 265.142 516.253 265.536 516.524 265.759C516.678 265.658 517.045 265.365 517.625 264.892C518.199 264.413 518.805 263.764 519.432 262.95C520.06 262.131 520.586 261.178 521.022 260.082C521.458 258.992 521.607 257.779 521.474 256.449C521.299 254.704 520.682 253.272 519.613 252.155C518.55 251.049 517.183 250.155 515.541 249.474C512.675 248.33 509.331 247.612 505.513 247.319C504.301 247.229 503.025 247.175 501.675 247.159L501.403 244.42C501.127 241.642 498.649 239.594 495.895 239.865L486.878 240.759C484.124 241.031 482.093 243.531 482.364 246.308L482.667 249.351C481.333 249.734 480.083 250.165 478.914 250.655C475.314 252.145 472.411 253.991 470.216 256.177C468.014 258.375 466.483 260.832 465.633 263.567C464.782 266.296 464.505 269.201 464.808 272.276C465.17 275.942 466.132 278.911 467.69 281.188C469.248 283.47 471.236 285.268 473.661 286.577C476.08 287.891 478.818 288.796 481.864 289.29C484.916 289.785 488.074 290.083 491.328 290.179L497.841 290.291C500.93 290.408 503.232 290.7 504.742 291.179C506.247 291.658 507.082 292.733 507.246 294.398C507.406 295.983 506.646 297.17 504.982 297.962C503.307 298.755 500.781 299.324 497.4 299.659C494.428 299.952 491.578 300.005 488.851 299.814C486.123 299.628 483.678 299.319 481.514 298.909C479.344 298.489 477.462 298.01 475.867 297.452C474.272 296.898 473.118 296.404 472.411 295.967L466.643 309.646C467.35 310.076 468.599 310.688 470.386 311.476C472.172 312.268 474.474 312.96 477.281 313.567C480.089 314.168 483.401 314.615 487.224 314.913C487.862 314.96 488.516 314.998 489.186 315.024L489.175 315.008Z" fill="#FFA500"/>
<path d="M14.9347 307.469L20.2142 317.136L29.8321 322.409L20.2195 327.692L14.9453 337.321L9.66582 327.697L0 322.425L9.6605 317.142L14.9347 307.469Z" fill="#FFA500"/>
</g>
</svg>
