<svg class="css-ze2te4 css-qd6ojx" viewBox="0 0 70.00000000000001 117.8796571777404"><g transform="translate(-40.40265778803278, -16.462065511839395) scale(1.508068170630061)" class="css-1uk01dy" fill="#2a79a3"><path xmlns="http://www.w3.org/2000/svg" d="M55.83,43.676c-8.85-3.065-12.494-5.075-12.494-8.235c0-2.685,2.188-5.367,8.951-5.367c7.494,0,12.285,2.206,14.99,3.257  l3.02-10.824c-3.438-1.534-8.121-2.875-15.096-3.162v-8.429H45.004v9.102c-11.139,2.009-17.592,8.619-17.592,17.05  c0,9.293,7.6,14.081,18.738,17.531c7.701,2.394,11.029,4.693,11.029,8.332c0,3.832-4.061,5.939-9.99,5.939  c-6.766,0-12.906-2.011-17.277-4.211l-3.121,11.207c3.955,2.105,10.719,3.831,17.691,4.117v9.099h10.201v-9.769  c11.967-1.916,18.525-9.197,18.525-17.725C73.209,52.97,68.213,47.698,55.83,43.676z"></path></g></svg>