<svg width="116" height="108" viewBox="0 0 116 108" fill="none" xmlns="http://www.w3.org/2000/svg"><ellipse cx="107.42" cy="55.3134" rx="8.41975" ry="9.31343" fill="#C6D6F7"></ellipse><ellipse cx="53.4318" cy="53.73" rx="53.4318" ry="53.73" fill="#E9EFFB"></ellipse><path d="M53.4282 15.9121V91.541C63.4016 91.541 72.9664 87.557 80.0187 80.4654C87.0709 73.3738 91.0328 63.7556 91.0328 53.7266C91.0328 43.6975 87.0709 34.0793 80.0187 26.9877C72.9664 19.8961 63.4016 15.9121 53.4282 15.9121Z M53.6046 91.541L53.6045 15.9121C43.6312 15.9121 34.0663 19.8961 27.0141 26.9877C19.9619 34.0793 16 43.6976 16 53.7266C16 63.7556 19.9619 73.3738 27.0141 80.4654C34.0663 87.557 43.6312 91.541 53.6046 91.541Z" fill="#2864EB"></path><path d="M53.4281 60.8399C56.3069 60.8399 58.6407 58.4932 58.6407 55.5983C58.6407 52.7034 56.3069 50.3567 53.4281 50.3567C50.5494 50.3567 48.2156 52.7034 48.2156 55.5983C48.2156 58.4932 50.5494 60.8399 53.4281 60.8399Z" fill="white"></path><path d="M42.6629 36.8682L48.9468 45.1812L55.2307 53.4942L52.9826 54.8023L50.7345 56.1104L46.6987 46.4893L42.6629 36.8682Z" fill="white"></path><path d="M84.5079 55.8925L67.5628 56.5297L50.618 57.1666L50.6273 55.6783L50.6366 54.1897L67.5721 55.0411L84.5079 55.8925Z" fill="white"></path></svg>