<?xml version="1.0"?>
<svg width="2897" height="260" xmlns="http://www.w3.org/2000/svg" xmlns:svg="http://www.w3.org/2000/svg">
 <defs>
  <linearGradient id="paint0_linear_6815_11163" x1="0.18" x2="0.82" y1="1" y2="0">
   <stop offset="0.21" stop-color="#FE7717"/>
   <stop offset="1" stop-color="#FFCD4E"/>
  </linearGradient>
  <linearGradient id="paint1_linear_6815_11163" x1="0.5" x2="0.5" y1="1" y2="0">
   <stop stop-color="#518D83"/>
   <stop offset="1" stop-color="#62B790"/>
  </linearGradient>
  <linearGradient id="paint2_linear_6815_11163" x1="0.18" x2="0.82" y1="1" y2="0">
   <stop offset="0.21" stop-color="#FE7717"/>
   <stop offset="1" stop-color="#FFCD4E"/>
  </linearGradient>
  <linearGradient id="paint4_linear_6815_11163" x1="0.18" x2="0.82" y1="1" y2="0">
   <stop offset="0.21" stop-color="#FE7717"/>
   <stop offset="1" stop-color="#FFCD4E"/>
  </linearGradient>
  <linearGradient id="paint5_linear_6815_11163" x1="0.08" x2="0.87" y1="0.08" y2="0.87">
   <stop stop-color="#FF8049"/>
   <stop offset="1" stop-color="#FF4A3A"/>
  </linearGradient>
  <linearGradient id="paint6_linear_6815_11163" x1="0.18" x2="0.82" y1="1" y2="0">
   <stop offset="0.21" stop-color="#FE7717"/>
   <stop offset="1" stop-color="#FFCD4E"/>
  </linearGradient>
  <linearGradient id="paint7_linear_6815_11163" x1="0.08" x2="0.87" y1="0.08" y2="0.87">
   <stop stop-color="#FF8049"/>
   <stop offset="1" stop-color="#FF4A3A"/>
  </linearGradient>
  <linearGradient id="paint8_linear_6815_11163" x1="0.08" x2="0.87" y1="0.08" y2="0.87">
   <stop stop-color="#FF8049"/>
   <stop offset="1" stop-color="#FF4A3A"/>
  </linearGradient>
  <linearGradient id="paint9_linear_6815_11163" x1="0.5" x2="0.5" y1="1" y2="0">
   <stop stop-color="#518D83"/>
   <stop offset="1" stop-color="#62B790"/>
  </linearGradient>
  <clipPath id="clip0_6815_11163">
   <rect fill="white" height="260" id="svg_2" width="2897"/>
  </clipPath>
  <clipPath id="clip1_6815_11163">
   <rect fill="white" height="30" id="svg_3" rx="15" width="31" x="50" y="113"/>
  </clipPath>
  <clipPath id="clip2_6815_11163">
   <rect fill="white" height="40" id="svg_4" transform="matrix(-1 0 0 1 1212 110)" width="40"/>
  </clipPath>
 </defs>
 <g class="layer">
  <title>Layer 1</title>
  <g clip-path="url(#clip0_6815_11163)" id="svg_6">
   <text fill="#141731" font-family="Blinker" font-size="70" font-weight="600" id="svg_5" x="178" y="160">Creditos</text>
   <rect fill="#D9D9D9" height="130" id="svg_7" rx="30" width="130" y="65"/>
   <rect fill="url(#paint0_linear_6815_11163)" height="130" id="svg_8" rx="30" width="130" y="65"/>
   <rect fill="url(#paint1_linear_6815_11163)" height="130" id="svg_9" rx="30" width="130" y="65"/>
   <g clip-path="url(#clip1_6815_11163)" id="svg_10">
    <path clip-rule="evenodd" d="m63.67,113.08c-5.89,0.76 -10.74,5.06 -12.23,10.86c-0.33,1.29 -0.44,2.19 -0.43,3.68c0,1.49 0.1,2.38 0.44,3.68c0.95,3.71 3.39,6.96 6.73,8.94c2.95,1.76 6.74,2.4 10.13,1.71c5.53,-1.11 9.9,-5.32 11.27,-10.82c0.42,-1.72 0.53,-3.95 0.28,-5.63c-0.99,-6.58 -6.1,-11.61 -12.61,-12.42c-0.69,-0.09 -2.91,-0.09 -3.58,0zm-13.77,27.57c-0.94,1.39 -1.73,2.61 -2.02,3.07c-0.05,0.08 0.01,0.18 0.1,0.16c0.48,-0.07 1.66,-0.26 2.99,-0.52c1.48,-0.27 2.74,-0.47 3.1,-0.53c0.06,-0.01 0.11,0.03 0.12,0.09c0.07,0.36 0.32,1.64 0.59,3.11c0.36,1.97 0.55,2.75 0.64,3.04c0.02,0.08 0.11,0.09 0.16,0.02l3.87,-5.75c0.03,-0.06 0.01,-0.14 -0.05,-0.17c-0.62,-0.26 -2.31,-1.18 -2.9,-1.57c-1.39,-0.92 -2.88,-2.27 -3.86,-3.5c-0.15,-0.2 -0.31,-0.4 -0.41,-0.52c-0.04,-0.05 -0.12,-0.05 -0.16,0.01c-0.27,0.36 -1.16,1.58 -2.17,3.06zm29.14,-2.99c-0.04,-0.06 -0.12,-0.06 -0.16,0c-0.98,1.22 -3.01,3.03 -4.39,3.94c-0.56,0.37 -2.45,1.33 -2.92,1.57c-0.06,0.03 -0.08,0.1 -0.04,0.16l3.85,5.72c0.05,0.07 0.17,0.05 0.19,-0.04c0.11,-0.48 0.39,-1.67 0.64,-3.02c0.28,-1.49 0.52,-2.76 0.59,-3.12c0.01,-0.06 0.07,-0.09 0.13,-0.08c0.36,0.06 1.61,0.29 3.09,0.57c1.33,0.25 2.49,0.44 2.98,0.52c0.09,0.02 0.16,-0.08 0.11,-0.16c-0.64,-0.96 -3.4,-5.12 -4.07,-6.06z" fill="white" fill-rule="evenodd" id="svg_11"/>
    <path d="m60.87,127.43l3.18,3.28l7.06,-7.29" id="svg_12" stroke="#59A189" stroke-linecap="round" stroke-width="3"/>
   </g>
   <path clip-rule="evenodd" d="m49.25,141.97c-0.98,1.28 -1.79,2.41 -2.11,2.85c-0.05,0.08 0.01,0.18 0.1,0.17c0.5,-0.07 1.73,-0.25 3.12,-0.49c1.55,-0.26 2.88,-0.45 3.24,-0.5c0.05,0 0.1,0.03 0.12,0.09c0.07,0.34 0.32,1.53 0.61,2.9c0.38,1.86 0.58,2.59 0.67,2.86c0.02,0.07 0.11,0.08 0.15,0.02l4.03,-5.38c0.05,-0.06 0.02,-0.14 -0.05,-0.17c-0.65,-0.25 -2.39,-1.1 -3.01,-1.47c-1.45,-0.85 -3,-2.12 -4.02,-3.27c-0.17,-0.19 -0.34,-0.38 -0.43,-0.49c-0.05,-0.05 -0.12,-0.05 -0.16,0c-0.27,0.34 -1.21,1.48 -2.26,2.88zm30.37,-2.81c-0.04,-0.05 -0.12,-0.05 -0.16,0c-1.02,1.15 -3.13,2.84 -4.58,3.69c-0.59,0.35 -2.53,1.24 -3.04,1.47c-0.06,0.03 -0.08,0.11 -0.04,0.16l4.02,5.35c0.05,0.07 0.16,0.05 0.18,-0.04c0.12,-0.45 0.41,-1.57 0.68,-2.84c0.28,-1.38 0.54,-2.56 0.61,-2.9c0.01,-0.06 0.06,-0.1 0.12,-0.09c0.36,0.06 1.68,0.28 3.23,0.54c1.39,0.23 2.6,0.41 3.11,0.49c0.09,0.01 0.16,-0.09 0.1,-0.17c-0.69,-0.93 -3.55,-4.8 -4.23,-5.66z" fill="white" fill-rule="evenodd" id="svg_14"/>
   <text fill="#141731" font-family="Blinker" font-size="70" font-weight="600" id="svg_1" x="2450" y="160">Prestamos</text>
   <rect fill="url(#paint2_linear_6815_11163)" height="130" id="svg_15" rx="30" width="130" x="2269" y="65"/>
   <path clip-rule="evenodd" d="m2319,116.05c-2.43,0.43 -4.37,2.38 -4.87,4.9c-0.09,0.42 -0.12,1.03 -0.12,1.98l0,1.38l19.99,0l20,0l0,-1.31c0,-1.96 -0.19,-2.83 -0.83,-3.97c-0.77,-1.33 -2.02,-2.35 -3.5,-2.83l-0.56,-0.19l-14.88,-0.01c-8.18,0 -15.03,0.02 -15.23,0.05zm-4.97,18.12c0.02,6.5 -0.01,6.07 0.64,7.46c0.3,0.62 0.46,0.86 1.04,1.46c0.8,0.83 1.43,1.25 2.47,1.62l0.72,0.26l14.8,0.02c12.63,0.02 14.88,0.01 15.38,-0.09c2.41,-0.47 4.31,-2.4 4.8,-4.86c0.1,-0.52 0.12,-1.4 0.12,-6.12l0,-5.51l-20,0l-20,0l0.03,5.76zm22.76,-1.48c1.35,0.3 2.5,1.36 2.95,2.72c0.13,0.38 0.17,0.7 0.18,1.26c0,0.97 -0.22,1.71 -0.73,2.41c-0.49,0.68 -0.77,0.93 -1.44,1.28c-1.35,0.71 -2.79,0.59 -4.03,-0.33c-2.2,-1.62 -2.22,-4.93 -0.05,-6.62c0.92,-0.72 2,-0.96 3.12,-0.72zm6.05,0.01c1.23,0.3 2.17,1.08 2.74,2.27c0.31,0.64 0.33,0.72 0.36,1.5c0.03,0.67 0.01,0.91 -0.12,1.35c-0.17,0.58 -0.58,1.35 -0.91,1.71c-0.27,0.29 -1.11,0.86 -1.53,1.03c-0.84,0.34 -2.08,0.3 -2.89,-0.08l-0.42,-0.2l0.23,-0.17c0.67,-0.49 1.27,-1.37 1.54,-2.3c0.15,-0.51 0.15,-1.68 0,-2.21c-0.25,-0.86 -0.75,-1.65 -1.36,-2.15l-0.38,-0.31l0.32,-0.17c0.69,-0.37 1.61,-0.47 2.42,-0.27z" fill="white" fill-rule="evenodd" id="svg_16"/>
   <text fill="#141731" font-family="Blinker" font-size="70" font-weight="600" id="svg_13" transform="matrix(1 0 0 1 0 0)" x="711" y="160">Garantias</text>
   <rect fill="url(#paint4_linear_6815_11163)" height="130" id="svg_20" rx="30" transform="matrix(1 0 0 1 0 0)" width="130" x="516" y="65"/>
   <path d="m575.94,123.77l4.3,-9.28c0.3,-0.65 1.23,-0.65 1.53,0l4.3,9.28c0.12,0.26 0.38,0.45 0.67,0.48l10.18,1.2c0.72,0.09 1.01,0.97 0.48,1.46l-7.53,6.94c-0.22,0.2 -0.31,0.5 -0.26,0.78l2,10.03c0.14,0.7 -0.61,1.25 -1.24,0.9l-8.95,-4.99c-0.26,-0.15 -0.57,-0.15 -0.83,0l-8.95,4.99c-0.63,0.35 -1.38,-0.2 -1.24,-0.9l2,-10.03c0.05,-0.28 -0.04,-0.58 -0.26,-0.78l-7.53,-6.94c-0.53,-0.49 -0.24,-1.37 0.48,-1.46l10.18,-1.2c0.29,-0.03 0.55,-0.22 0.67,-0.48z" fill="white" id="svg_21" stroke="white" stroke-linecap="round" stroke-linejoin="round" stroke-width="2"/>
   <text fill="#141731" font-family="Blinker" font-size="70" font-weight="600" id="svg_18" x="1300" y="160">Depositos</text>
   <circle cx="1192" cy="130" fill="url(#paint5_linear_6815_11163)" id="svg_22" r="65"/>
   <rect fill="#D9D9D9" height="130" id="svg_23" rx="30" width="130" x="1127" y="65"/>
   <rect fill="url(#paint6_linear_6815_11163)" height="130" id="svg_24" rx="30" width="130" x="1127" y="65"/>
   <rect fill="url(#paint7_linear_6815_11163)" height="130" id="svg_25" rx="30" width="130" x="1127" y="65"/>
   <g clip-path="url(#clip2_6815_11163)" id="svg_26">
    <path d="m1175.7,116.66l32.59,0c1.13,0 2.04,0.86 2.04,1.91l0,22.86c0,1.05 -0.91,1.9 -2.04,1.9l-32.59,0c-1.13,0 -2.04,-0.85 -2.04,-1.9l0,-22.86c0,-1.05 0.91,-1.91 2.04,-1.91z" fill="white" id="svg_28" stroke="white" stroke-linecap="round" stroke-linejoin="round" stroke-width="2"/>
    <path d="m1201.03,136.21c0.55,0 1,0.45 1,1c0,0.55 -0.45,1 -1,1l0,-2zm-7.22,2c-0.55,0 -1,-0.45 -1,-1c0,-0.55 0.45,-1 1,-1l0,2zm7.22,0l-7.22,0l0,-2l7.22,0l0,2z" fill="#FF6742" id="svg_29"/>
    <path d="m1211.88,123.37c0.82,0 1.5,0.67 1.5,1.5c0,0.83 -0.68,1.5 -1.5,1.5l0,-3zm-39.73,3c-0.83,0 -1.5,-0.67 -1.5,-1.5c0,-0.83 0.67,-1.5 1.5,-1.5l0,3zm39.73,0l-39.73,0l0,-3l39.73,0l0,3z" fill="#FF6742" id="svg_30"/>
   </g>
   <text fill="#141731" font-family="Blinker" font-size="70" font-weight="600" id="svg_27" x="1886" y="159">Ahorros</text>
   <circle cx="1758" cy="130" fill="url(#paint8_linear_6815_11163)" id="svg_31" r="65"/>
   <rect fill="url(#paint9_linear_6815_11163)" height="130" id="svg_32" rx="30" width="130" x="1693" y="65"/>
   <path clip-rule="evenodd" d="m1745.49,114.7c-0.33,0.1 -0.71,0.43 -0.85,0.75c-0.44,1 -0.93,3.92 -0.93,5.55l0,0.73l-0.48,0.71c-0.52,0.78 -1.03,1.76 -1.4,2.67l-0.24,0.58l-1.29,0.19c-1.46,0.21 -1.73,0.31 -2.06,0.77l-0.21,0.3l-0.02,3.25c-0.02,2.84 -0.01,3.29 0.09,3.56c0.21,0.53 0.45,0.67 2.15,1.24l1.56,0.51l0.13,0.34c0.16,0.45 0.71,1.53 1.02,2.05l0.25,0.41l-0.65,1.16c-0.36,0.63 -0.69,1.32 -0.74,1.52c-0.14,0.6 -0.06,1.41 0.21,1.94c0.32,0.65 0.76,1.03 2.04,1.78c2.1,1.24 2.58,1.4 3.53,1.2c0.98,-0.2 1.59,-0.66 2.16,-1.66l0.33,-0.58l0.62,0.21c0.85,0.28 2.06,0.53 3.06,0.63c0.53,0.05 2.21,0.07 4.77,0.05c3.68,-0.03 3.99,-0.04 4.78,-0.19c1.27,-0.23 2.07,-0.49 3.65,-1.14c0.05,-0.02 0.27,0.29 0.51,0.71c0.23,0.41 0.53,0.88 0.66,1.06c0.75,0.93 2.15,1.26 3.31,0.79c0.71,-0.29 3.05,-1.71 3.41,-2.07c0.73,-0.72 1.01,-1.89 0.69,-2.85c-0.08,-0.24 -0.58,-1.19 -1.12,-2.12l-0.97,-1.7l0.25,-0.49c0.54,-1.1 1.07,-2.74 1.24,-3.93c0.15,-0.97 0.02,-0.87 1.06,-0.87c1.03,0 1.28,-0.08 1.68,-0.53c0.39,-0.44 0.42,-1.27 0.06,-1.73c-0.37,-0.49 -0.62,-0.58 -1.65,-0.61c-0.88,-0.02 -0.93,-0.03 -0.96,-0.18c-0.01,-0.08 -0.07,-0.39 -0.11,-0.69c-0.7,-4.37 -3.47,-8.15 -7.53,-10.28c-1.05,-0.56 -1.01,-0.56 -1.01,0.09c0,1.58 -0.77,3.37 -1.99,4.61c-1.03,1.06 -2.32,1.75 -3.79,2.06c-0.59,0.12 -2,0.12 -2.57,0c-2.28,-0.48 -4.07,-1.83 -5.06,-3.8c-0.63,-1.27 -0.9,-2.75 -0.7,-3.93l0.06,-0.34l-0.26,0.01c-0.15,0 -0.39,0.04 -0.55,0.09c-0.28,0.09 -0.31,0.08 -1.08,-0.3c-1.13,-0.56 -2.25,-0.99 -3.4,-1.32c-1.01,-0.28 -1.29,-0.32 -1.66,-0.21zm3.27,10.25c0.59,0.39 0.78,1.19 0.41,1.81c-0.58,0.99 -2,0.88 -2.46,-0.2c-0.21,-0.51 -0.07,-1.11 0.37,-1.5c0.44,-0.4 1.17,-0.45 1.68,-0.11z" fill="white" fill-rule="evenodd" id="svg_33"/>
   <ellipse cx="1759.57" cy="117.44" fill="white" id="svg_34" rx="4.44" ry="4.44"/>
  </g>
 </g>
</svg>