<svg width="86" height="111" viewBox="0 0 86 111" fill="none" xmlns="http://www.w3.org/2000/svg"><path d="M8.70619 9.45703C6.55452 9.45929 4.49167 10.2477 2.9702 11.6493C1.44873 13.0509 0.592901 14.9513 0.590454 16.9335V103.066C0.592923 105.049 1.44877 106.949 2.97023 108.35C4.4917 109.752 6.55453 110.54 8.70619 110.543H77.2939C79.4455 110.54 81.5083 109.752 83.0298 108.35C84.5512 106.949 85.407 105.049 85.4095 103.066V16.9335C85.4071 14.9513 84.5512 13.051 83.0298 11.6493C81.5083 10.2477 79.4455 9.45931 77.2939 9.45703H8.70619Z" fill="#E9EFFB"></path><path d="M69.5034 33.8997H16.4965C15.4123 33.8997 14.5333 34.7786 14.5333 35.8629C14.5333 36.9471 15.4123 37.8261 16.4965 37.8261H69.5034C70.5877 37.8261 71.4667 36.9471 71.4667 35.8629C71.4667 34.7786 70.5877 33.8997 69.5034 33.8997Z" fill="#00AA8C"></path><path d="M69.5034 43.7158H16.4965C15.4123 43.7158 14.5333 44.5948 14.5333 45.679C14.5333 46.7633 15.4123 47.6423 16.4965 47.6423H69.5034C70.5877 47.6423 71.4667 46.7633 71.4667 45.679C71.4667 44.5948 70.5877 43.7158 69.5034 43.7158Z" fill="#00AA8C"></path><path d="M69.7488 54.0225H16.2511C15.3024 54.0225 14.5333 54.7916 14.5333 55.7403C14.5333 56.689 15.3024 57.4581 16.2511 57.4581H69.7488C70.6976 57.4581 71.4667 56.689 71.4667 55.7403C71.4667 54.7916 70.6976 54.0225 69.7488 54.0225Z" fill="#00AA8C"></path><path d="M69.5035 63.8386H16.4965C15.4123 63.8386 14.5333 64.7176 14.5333 65.8018C14.5333 66.8861 15.4123 67.765 16.4965 67.765H69.5035C70.5877 67.765 71.4667 66.8861 71.4667 65.8018C71.4667 64.7176 70.5877 63.8386 69.5035 63.8386Z" fill="#00AA8C"></path><path d="M69.5034 73.6548H16.4965C15.4123 73.6548 14.5333 74.5337 14.5333 75.618C14.5333 76.7023 15.4123 77.5812 16.4965 77.5812H69.5034C70.5877 77.5812 71.4667 76.7023 71.4667 75.618C71.4667 74.5337 70.5877 73.6548 69.5034 73.6548Z" fill="#00AA8C"></path><path d="M69.7489 83.9617H16.2511C15.3024 83.9617 14.5333 84.7308 14.5333 85.6795C14.5333 86.6282 15.3024 87.3973 16.2511 87.3973H69.7489C70.6976 87.3973 71.4667 86.6282 71.4667 85.6795C71.4667 84.7308 70.6976 83.9617 69.7489 83.9617Z" fill="#00AA8C"></path><path d="M69.7488 93.7778H16.2511C15.3024 93.7778 14.5333 94.5469 14.5333 95.4957C14.5333 96.4444 15.3024 97.2135 16.2511 97.2135H69.7488C70.6976 97.2135 71.4667 96.4444 71.4667 95.4957C71.4667 94.5469 70.6976 93.7778 69.7488 93.7778Z" fill="#00AA8C"></path><path d="M72.197 10.0089L15.8793 20.3152L29.1303 92.7236L85.4479 82.4173L72.197 10.0089Z" fill="#FCFDFE"></path><path d="M65.8437 24.5851L26.983 31.6968C26.2285 31.8348 25.7288 32.5584 25.8668 33.313C26.0049 34.0675 26.7285 34.5672 27.4831 34.4292L66.3438 27.3175C67.0983 27.1795 67.598 26.4559 67.4599 25.7013C67.3219 24.9468 66.5983 24.4471 65.8437 24.5851Z" fill="#2864EB"></path><path d="M67.1771 31.8718L28.3164 38.9834C27.5619 39.1215 27.0621 39.8451 27.2002 40.5996C27.3383 41.3541 28.0619 41.8539 28.8164 41.7158L67.6772 34.6042C68.4317 34.4661 68.9314 33.7425 68.7933 32.9879C68.6553 32.2334 67.9316 31.7337 67.1771 31.8718Z" fill="#2864EB"></path><path d="M68.5106 39.1579L29.6499 46.2695C28.8954 46.4076 28.3956 47.1312 28.5337 47.8857C28.6718 48.6403 29.3954 49.14 30.1499 49.0019L69.0106 41.8903C69.7652 41.7522 70.2649 41.0286 70.1268 40.2741C69.9887 39.5195 69.2651 39.0198 68.5106 39.1579Z" fill="#2864EB"></path><path d="M69.844 46.4443L30.9833 53.5559C30.2287 53.694 29.729 54.4176 29.8671 55.1721C30.0052 55.9266 30.7288 56.4264 31.4833 56.2883L70.344 49.1767C71.0985 49.0386 71.5983 48.315 71.4602 47.5605C71.3221 46.8059 70.5985 46.3062 69.844 46.4443Z" fill="#2864EB"></path><path d="M71.1768 53.7308L32.3162 60.8423C31.5617 60.9804 31.0619 61.7039 31.2 62.4585C31.3381 63.213 32.0617 63.7127 32.8162 63.5747L71.6768 56.4632C72.4313 56.3251 72.931 55.6015 72.793 54.847C72.6549 54.0924 71.9313 53.5927 71.1768 53.7308Z" fill="#2864EB"></path><path d="M72.5109 61.0173L33.6501 68.1289C32.8956 68.267 32.3959 68.9906 32.534 69.7451C32.672 70.4996 33.3956 70.9994 34.1502 70.8613L73.0109 63.7497C73.7654 63.6116 74.2652 62.888 74.1271 62.1335C73.989 61.3789 73.2654 60.8792 72.5109 61.0173Z" fill="#2864EB"></path><path d="M73.8443 68.3037L34.9836 75.4153C34.229 75.5533 33.7293 76.277 33.8674 77.0315C34.0055 77.786 34.7291 78.2857 35.4836 78.1477L74.3443 71.036C75.0989 70.898 75.5986 70.1744 75.4605 69.4198C75.3224 68.6653 74.5988 68.1656 73.8443 68.3037Z" fill="#2864EB"></path><path d="M57.3385 5.74623H50.5144V4.34839C50.5144 3.33434 50.1118 2.36182 49.3951 1.64478C48.6785 0.927733 47.7066 0.524902 46.6931 0.524902H39.3069C38.2934 0.524903 37.3215 0.927735 36.6048 1.64478C35.8882 2.36182 35.4856 3.33434 35.4856 4.34839V5.74623H28.6615C28.1597 5.74623 27.6628 5.84513 27.1992 6.03727C26.7355 6.22942 26.3143 6.51106 25.9594 6.8661C25.6046 7.22115 25.3231 7.64264 25.1311 8.10653C24.939 8.57042 24.8402 9.06761 24.8402 9.56972V20.1571H61.1598V9.56972C61.1598 9.06761 61.0609 8.57042 60.8689 8.10653C60.6768 7.64264 60.3954 7.22115 60.0405 6.8661C59.6857 6.51106 59.2644 6.22942 58.8008 6.03727C58.3372 5.84513 57.8403 5.74623 57.3385 5.74623Z" fill="#0C1E43"></path></svg>