<svg width="613" height="476" viewBox="0 0 613 476" fill="none" xmlns="http://www.w3.org/2000/svg">
  <g opacity="1">
    <!-- Agregamos una transformación para mover el path hacia el centro -->
    <path transform="translate(50, 0)" fill-rule="evenodd" clip-rule="evenodd" d="M232.585 331.522L232.463 334.677C232.341 337.805 234.776 340.46 237.876 340.583L248.015 340.982C251.114 341.104 253.751 338.646 253.874 335.523L253.991 332.522C260.317 331.836 265.597 330.049 269.824 327.165C275.938 323.005 279.149 316.993 279.458 309.135C279.607 305.395 279.059 302.187 277.815 299.516C276.576 296.84 274.848 294.616 272.642 292.844C270.43 291.073 267.888 289.684 264.996 288.678C262.109 287.678 259.095 286.88 255.963 286.29L243.368 283.959C240.417 283.38 238.211 282.725 236.754 282.012C235.297 281.299 234.601 280.15 234.659 278.554C234.723 276.963 235.584 275.713 237.248 274.793C238.907 273.872 241.831 273.495 246.005 273.659C249.716 273.808 253.023 274.223 255.926 274.899C258.824 275.575 261.306 276.304 263.369 277.086C265.427 277.873 267.07 278.66 268.293 279.464C269.515 280.262 270.265 280.805 270.531 281.102C270.717 281.012 271.174 280.746 271.887 280.31C272.599 279.868 273.37 279.24 274.194 278.432C275.013 277.618 275.747 276.644 276.401 275.495C277.049 274.351 277.405 273.026 277.464 271.531C277.544 269.568 277.07 267.887 276.06 266.482C275.05 265.089 273.678 263.886 271.956 262.881C268.952 261.168 265.358 259.853 261.163 258.938C259.834 258.646 258.425 258.39 256.925 258.172L257.048 255.092C257.17 251.974 254.735 249.314 251.635 249.192L241.496 248.793C238.397 248.67 235.76 251.128 235.637 254.246L235.504 257.667C233.968 257.885 232.511 258.172 231.139 258.529C226.918 259.625 223.414 261.221 220.639 263.312C217.858 265.408 215.779 267.898 214.413 270.797C213.047 273.697 212.292 276.873 212.153 280.331C211.989 284.449 212.595 287.891 213.977 290.663C215.354 293.435 217.284 295.733 219.767 297.563C222.25 299.399 225.147 300.825 228.449 301.841C231.756 302.862 235.212 303.676 238.811 304.288L246.015 305.416C249.423 306.022 251.933 306.703 253.533 307.47C255.128 308.236 255.889 309.555 255.814 311.422C255.745 313.205 254.724 314.402 252.752 315.03C250.774 315.652 247.882 315.891 244.08 315.737C240.741 315.604 237.573 315.221 234.574 314.588C231.581 313.96 228.912 313.237 226.578 312.449C224.238 311.651 222.223 310.827 220.543 309.959C218.858 309.103 217.656 308.369 216.938 307.778L208.432 322.058C209.149 322.648 210.441 323.515 212.297 324.664C214.158 325.819 216.603 326.942 219.623 328.048C222.643 329.149 226.253 330.155 230.443 331.075C231.145 331.23 231.862 331.368 232.601 331.506L232.585 331.522Z" fill="#141414"/>
  </g>
</svg>

